<?xml version="1.0" encoding="UTF-8" standalone="no"?>
<svg
   xmlns:dc="http://purl.org/dc/elements/1.1/"
   xmlns:cc="http://creativecommons.org/ns#"
   xmlns:rdf="http://www.w3.org/1999/02/22-rdf-syntax-ns#"
   xmlns:svg="http://www.w3.org/2000/svg"
   xmlns="http://www.w3.org/2000/svg"
   width="100"
   height="100"
   viewBox="0 0 100 100"
   version="1.1"
   id="svg8">
  <defs
     id="defs2">
    <marker
       orient="auto"
       refY="0"
       refX="0"
       id="Scissors"
       style="overflow:visible">
      <path
         id="schere"
         d="M 9.0898857,-3.6061018 C 8.1198849,-4.7769976 6.3697607,-4.7358294 5.0623558,-4.2327734 l -8.2124046,3.0779029 c -2.3882933,-1.3067135 -4.7482873,-0.9325372 -4.7482873,-1.5687873 0,-0.4973164 0.4566662,-0.3883222 0.3883068,-1.6831941 -0.065635,-1.2432767 -1.3635771,-2.1630796 -2.5903987,-2.0816435 -1.227271,-0.00735 -2.499439,0.9331613 -2.510341,2.2300611 -0.09143,1.3063864 1.007209,2.5196896 2.306764,2.6052316 1.5223406,0.2266616 4.218258,-0.6955566 5.482945,1.57086006 -0.9422847,1.73825774 -2.6140244,1.74307674 -4.1255107,1.65607034 -1.2548743,-0.072235 -2.7620933,0.2873979 -3.3606483,1.5208605 -0.578367,1.1820862 -0.0112,2.8646022 1.316749,3.226412 1.3401912,0.4918277 3.1806689,-0.129711 3.4993722,-1.6707242 0.2456585,-1.187823 -0.5953659,-1.7459574 -0.2725074,-2.1771537 0.2436135,-0.32536 1.7907806,-0.1368452 4.5471053,-1.3748244 L 5.6763468,4.2330688 C 6.8000164,4.5467672 8.1730685,4.5362646 9.1684433,3.4313614 l -9.22008423,-3.48508362 z m -18.3078016,-1.900504 c 1.294559,0.7227998 1.1888392,2.6835702 -0.1564272,3.0632889 -1.2165179,0.423661 -2.7710269,-0.7589694 -2.3831779,-2.0774648 0.227148,-1.0818519 1.653387,-1.480632 2.5396051,-0.9858241 z m 0.056264,8.0173649 c 1.3508301,0.4988648 1.1214429,2.7844356 -0.2522207,3.091609 -0.9110594,0.3163391 -2.2135494,-0.1387976 -2.3056964,-1.2121394 -0.177609,-1.305055 1.356085,-2.4841482 2.5579171,-1.8794696 z"
         style="fill:#000000;fill-opacity:1;stroke:#000000;stroke-opacity:1" />
    </marker>
    <marker
       style="overflow:visible"
       id="DistanceStart"
       refX="0"
       refY="0"
       orient="auto">
      <g
         id="g2300"
         style="fill:#000000;fill-opacity:1;stroke:#000000;stroke-opacity:1">
        <path
           style="fill:#000000;fill-opacity:1;stroke:#000000;stroke-width:1.14999998;stroke-linecap:square;stroke-opacity:1"
           d="M 0,0 H 2"
           id="path2306" />
        <path
           style="fill:#000000;fill-opacity:1;fill-rule:evenodd;stroke:#000000;stroke-opacity:1"
           d="M 0,0 13,4 9,0 13,-4 Z"
           id="path2302" />
        <path
           style="fill:#000000;fill-opacity:1;stroke:#000000;stroke-width:1;stroke-linecap:square;stroke-opacity:1"
           d="M 0,-4 V 40"
           id="path2304" />
      </g>
    </marker>
    <marker
       orient="auto"
       refY="0"
       refX="0"
       id="Arrow1Mend"
       style="overflow:visible">
      <path
         id="path828"
         d="M 0,0 5,-5 -12.5,0 5,5 Z"
         style="fill:#000000;fill-opacity:1;fill-rule:evenodd;stroke:#000000;stroke-width:1.00000003pt;stroke-opacity:1"
         transform="matrix(-0.4,0,0,-0.4,-4,0)" />
    </marker>
    <marker
       orient="auto"
       refY="0"
       refX="0"
       id="Arrow1Sstart"
       style="overflow:visible">
      <path
         id="path831"
         d="M 0,0 5,-5 -12.5,0 5,5 Z"
         style="fill:#000000;fill-opacity:1;fill-rule:evenodd;stroke:#000000;stroke-width:1.00000003pt;stroke-opacity:1"
         transform="matrix(0.2,0,0,0.2,1.2,0)" />
    </marker>
    <marker
       orient="auto"
       refY="0"
       refX="0"
       id="Arrow1Lstart"
       style="overflow:visible">
      <path
         id="path819"
         d="M 0,0 5,-5 -12.5,0 5,5 Z"
         style="fill:#000000;fill-opacity:1;fill-rule:evenodd;stroke:#000000;stroke-width:1.00000003pt;stroke-opacity:1"
         transform="matrix(0.8,0,0,0.8,10,0)" />
    </marker>
  </defs>
  <metadata
     id="metadata5">
    <rdf:RDF>
      <cc:Work
         rdf:about="">
        <dc:format>image/svg+xml</dc:format>
        <dc:type
           rdf:resource="http://purl.org/dc/dcmitype/StillImage" />
        <dc:title></dc:title>
      </cc:Work>
    </rdf:RDF>
  </metadata>
  <g
     transform="translate(-19.939443,41.863521)"
     id="layer1">
    <g
       style="display:inline"
       id="layer2">
      <path
         id="path1339"
         d="m 19.686172,108.1257 h 2.64584 m -2.62825,-1.32276 1.85143,0.0493 m -1.79867,-1.37108 1.84946,0.0985 m -1.76158,-1.41841 1.84619,0.1476 m -1.72324,-1.46475 1.84162,0.19664 m -1.68369,-1.51006 2.62248,0.35077 m -2.42968,-1.65952 1.82856,0.29427 m -1.60102,-1.597432 1.82008,0.34278 m -1.55798,-1.63943 1.81032,0.39105 m -1.51383,-1.68028 1.79928,0.43906 m -1.46862,-1.71994 2.55282,0.69535 m -2.18822,-1.96699 1.77341,0.53409 m -1.37511,-1.79559 1.75857,0.58106 m -1.32688,-1.83152 1.7425,0.62761 m -1.27771,-1.866147 1.7252,0.673724 m -1.22764,-1.899465 2.4381,1.027658 m -1.90813,-2.239735 1.68694,0.764487 m -1.12492,-1.962041 1.66602,0.809069 m -1.07236,-1.99126 1.64392,0.853086 m -1.01903,-2.019071 1.62065,0.896494 m -0.96498,-2.045451 2.28034,1.341817 m -1.59435,-2.472934 1.5707,0.981384 m -0.85488,-2.09386 1.54405,1.022802 m -0.7989,-2.11585 1.51631,1.063497 m -0.74236,-2.136346 1.48749,1.10344 m -0.68528,-2.15533 2.08232,1.632289 m -1.25243,-2.662476 1.42673,1.180957 m -0.56974,-2.188713 1.39482,1.218477 m -0.51134,-2.203088 1.36193,1.255134 m -0.45257,-2.215906 1.32807,1.290904 m -0.39349,-2.227156 1.84754,1.893945 m -0.8884,-2.805016 1.25757,1.359682 m -0.27454,-2.244926 1.22097,1.39264 m -0.21475,-2.251432 1.18351,1.424613 m -0.15481,-2.256347 1.14521,1.45558 m -0.0947,-2.259665 1.58014,2.122165 m -0.50868,-2.898035 1.06621,1.514402 m 0.0255,-2.261507 1.02556,1.542217 m 0.0856,-2.260029 0.98419,1.568942 m 0.1457,-2.256953 0.94213,1.594557 m 0.20565,-2.252281 1.28485,2.312921 m -0.11998,-2.939892 0.85602,1.642387 m 0.3251,-2.238163 0.81205,1.664568 m 0.3845,-2.228727 0.7675,1.685572 m 0.44363,-2.217715 0.72241,1.705384 m 0.50244,-2.205134 0.96687,2.462843 m 0.27083,-2.929848 0.63073,1.741377 m 0.61896,-2.175306 0.5842,1.757533 m 0.67658,-2.158079 0.53726,1.772445 m 0.73372,-2.139325 0.48994,1.786104 m 0.79035,-2.119059 0.63183,2.569287 m 0.65687,-2.868081 0.3943,1.809625 m 0.90188,-2.074046 0.34604,1.819469 m 0.95671,-2.049331 0.29754,1.828027 m 1.01087,-2.023168 0.24882,1.835293 m 1.06431,-1.995573 0.28562,2.630371 m 1.03131,-2.755679 0.1509,1.845926 m 1.1689,-1.936171 0.10176,1.849285 m 1.21996,-1.904406 0.0526,1.851338 m 1.27017,-1.871293 0.003,1.85208 m 1.31948,-1.836857 -0.0656,2.645019 m 1.38754,-2.594628 -0.0952,1.849637 m 1.41525,-1.764114 -0.1443,1.846453 m 1.46167,-1.725858 -0.19335,1.841963 m 1.50705,-1.686382 -0.24226,1.836171 m 1.55135,-1.645713 -0.41571,2.612972 m 1.71928,-2.387772 -0.33953,1.820696 m 1.63665,-1.560914 -0.38782,1.811024 m 1.67758,-1.516843 -0.43584,1.800072 m 1.71731,-1.4717 -0.48355,1.787846 m 1.75584,-1.425516 -0.75845,2.534795 m 2.02066,-2.138762 -0.57791,1.759612 m 1.82914,-1.330157 -0.6245,1.743623 m 1.86386,-1.281049 -0.67063,1.7264 m 1.89726,-1.231035 -0.7163,1.707958 m 1.92933,-1.180152 -1.08781,2.411868 m 2.28637,-1.851994 -0.80609,1.667463 m 1.98934,-1.075917 -0.85015,1.64544 m 2.01725,-1.02264 -0.8936,1.622252 m 2.04373,-0.968639 -0.93642,1.597918 m 2.06876,-0.913953 -1.39796,2.246361 m 2.51171,-1.53253 -1.02004,1.545877 m 2.11442,-0.802683 -1.06078,1.518207 m 2.13501,-0.746176 -1.10077,1.489464 m 2.154098,-0.689141 -1.139998,1.459667 m 2.171668,-0.63162 -1.683438,2.041198 m 2.692718,-1.186011 -1.21598,1.396999 m 2.20217,-0.515278 -1.25269,1.364173 m 2.21509,-0.45654 -1.28852,1.330381 m 2.22644,-0.397478 -1.32344,1.295648 m 2.23623,-0.338136 -1.93919,1.799998 m 2.82619,-0.818554 -1.39045,1.223459 m 2.25104,-0.218775 -1.42249,1.186054 m 2.25606,-0.158843 -1.45352,1.14781 m 2.25949,-0.0988 -1.48354,1.108754 m 2.26132,-0.03868 -2.1607,1.527022 m 2.90976,-0.436646 -1.54038,1.02832 m 2.26018,0.08159 -1.56718,0.986997 m 2.25721,0.141658 -1.59287,0.944977 m 2.25265,0.201627 -1.61744,0.902288 m 2.24649,0.261455 -2.34408,1.227085 m 2.94197,-0.04703 -1.66311,0.815028 m 2.22941,0.380513 -1.6842,0.770514 m 2.21851,0.439659 -1.70409,0.725458 m 2.20603,0.498493 -1.72278,0.679892 m 2.19199,0.556977 -2.48606,0.90549 m 2.92223,0.34341 -1.75649,0.58735 m 2.15929,0.67272 -1.77148,0.54043 m 2.14063,0.72989 -1.78522,0.49314 m 2.12047,0.78656 -1.79771,0.44549 m 2.09881,0.84266 -2.58417,0.56791 m 2.85091,0.7278 -1.81885,0.34929 m 2.05104,0.953052 -1.82749,0.30081 m 2.02497,1.00724 -1.83485,0.25211 m 1.99748,1.06074 -1.8409,0.20323 m 1.96856,1.11347 -2.63665,0.2203 m 2.72926,1.09933 -1.8491,0.10508 m 1.90658,1.21655 -1.85124,0.0559 m 1.87356,1.26682 -1.85207,0.007"
         style="font-style:normal;font-weight:normal;font-size:10.58333302px;line-height:1.25;font-family:sans-serif;letter-spacing:0px;word-spacing:0px;fill:none;fill-opacity:1;stroke:#ffffff;stroke-width:0.26458332;stroke-linecap:butt;stroke-linejoin:round;stroke-miterlimit:1;stroke-dasharray:none;stroke-dashoffset:0;stroke-opacity:1"
         transform="rotate(90,119.80737,58.511576)" />
    </g>
    <g
       id="layer3" />
    <text
       xml:space="preserve"
       style="font-style:normal;font-weight:normal;font-size:10.58333302px;line-height:1.25;font-family:sans-serif;letter-spacing:0px;word-spacing:0px;fill:#000000;fill-opacity:1;stroke:none;stroke-width:0.26458332"
       x="58.932934"
       y="68.083649"
       id="text1384"><tspan
         id="tspan1382"
         x="58.932934"
         y="77.447418"
         style="stroke-width:0.26458332" /></text>
    <g
       aria-label="       10      20      30      40      50      60      70      80      90     100     110     120     130     140     150     160     170     180     190     200     210     220     230     240"
       style="font-style:normal;font-weight:normal;font-size:10.58333302px;line-height:1.25;font-family:sans-serif;letter-spacing:0px;word-spacing:0px;fill:#ffffff;fill-opacity:1;stroke:none;stroke-width:0.26458332"
       id="text1388">
      <g
         style="fill:#ffffff;fill-opacity:1"
         transform="rotate(90,119.80737,58.511576)"
         id="g958">
        <path
           id="path954"
           style="font-style:normal;font-variant:normal;font-weight:normal;font-stretch:normal;font-size:1.41111112px;line-height:1.25;font-family:'Ubuntu Mono';-inkscape-font-specification:'Ubuntu Mono';letter-spacing:0.05291667px;word-spacing:0px;fill:#ffffff;fill-opacity:1;stroke:none;stroke-width:0.26458332"
           d="m 23.517952,102.70827 q -0.0192,-0.0749 -0.0529,-0.1473 -0.0351,-0.0726 -0.0938,-0.13815 l 0.0101,-0.0812 0.76884,0.0951 0.0203,-0.16385 0.098,0.0121 -0.0577,0.46635 -0.098,-0.0121 0.0232,-0.18766 -0.60779,-0.0752 q 0.0121,0.0171 0.0247,0.0414 0.0114,0.0228 0.0221,0.0511 0.0109,0.0269 0.02,0.0565 0.009,0.0296 0.0143,0.0572 z" />
        <path
           id="path956"
           style="font-style:normal;font-variant:normal;font-weight:normal;font-stretch:normal;font-size:1.41111112px;line-height:1.25;font-family:'Ubuntu Mono';-inkscape-font-specification:'Ubuntu Mono';letter-spacing:0.05291667px;word-spacing:0px;fill:#ffffff;fill-opacity:1;stroke:none;stroke-width:0.26458332"
           d="m 23.898082,101.65228 q 0.0363,0.005 0.0597,0.0312 0.0236,0.0247 0.0187,0.0596 -0.005,0.0363 -0.0348,0.055 -0.0297,0.0186 -0.066,0.0135 -0.0363,-0.005 -0.0611,-0.0314 -0.0248,-0.0263 -0.0197,-0.0626 0.005,-0.0349 0.0358,-0.052 0.0311,-0.0184 0.0674,-0.0133 z m -0.0361,0.36827 q -0.21799,-0.0307 -0.32355,-0.12102 -0.10677,-0.092 -0.0877,-0.22751 0.0193,-0.13695 0.14705,-0.1945 0.1264,-0.0577 0.34438,-0.0271 0.21799,0.0307 0.32496,0.12122 0.10556,0.0904 0.0863,0.22732 -0.0191,0.13554 -0.14566,0.19469 -0.12779,0.0576 -0.34578,0.0269 z m 0.0637,-0.45274 q -0.0713,-0.01 -0.13532,-0.0105 -0.0655,-5.3e-4 -0.11572,0.0122 -0.0503,0.0129 -0.0827,0.0411 -0.0325,0.0282 -0.0391,0.0757 -0.007,0.0475 0.0167,0.0836 0.0234,0.0361 0.0682,0.0623 0.0448,0.0263 0.10786,0.0437 0.0617,0.0172 0.13296,0.0272 0.0713,0.01 0.13673,0.0107 0.0641,5.3e-4 0.11432,-0.0124 0.0503,-0.0129 0.0827,-0.0411 0.0325,-0.0282 0.0392,-0.0757 0.007,-0.0475 -0.0168,-0.0836 -0.0234,-0.0361 -0.0682,-0.0623 -0.0448,-0.0262 -0.10646,-0.0435 -0.0631,-0.0174 -0.13437,-0.0275 z" />
        <path
           id="path958"
           style="font-style:normal;font-variant:normal;font-weight:normal;font-stretch:normal;font-size:1.41111112px;line-height:1.25;font-family:'Ubuntu Mono';-inkscape-font-specification:'Ubuntu Mono';letter-spacing:0.05291667px;word-spacing:0px;fill:#ffffff;fill-opacity:1;stroke:none;stroke-width:0.26458332"
           d="m 24.811982,96.196658 q 0.0437,0.0115 0.08,0.04 0.0366,0.0271 0.0687,0.0662 0.0324,0.0377 0.0613,0.0832 0.0289,0.0455 0.0561,0.0921 0.0151,0.0259 0.0366,0.0607 0.0215,0.0348 0.0451,0.0673 0.0236,0.0324 0.0479,0.0564 0.0244,0.0239 0.0448,0.0293 l 0.10217,-0.38898 0.0955,0.0251 -0.13444,0.51181 q -0.007,-5.3e-4 -0.014,-0.002 -0.008,-0.002 -0.015,-0.004 -0.0573,-0.0151 -0.10143,-0.0471 -0.0441,-0.032 -0.0799,-0.0735 -0.0358,-0.0415 -0.0643,-0.0884 -0.0295,-0.0486 -0.0567,-0.0951 -0.0221,-0.0379 -0.0436,-0.0727 -0.0211,-0.0362 -0.0444,-0.0642 -0.0229,-0.0294 -0.0497,-0.0495 -0.0278,-0.0219 -0.0606,-0.0305 -0.0368,-0.01 -0.066,-0.004 -0.0288,0.004 -0.0506,0.0203 -0.0228,0.0144 -0.0378,0.0382 -0.015,0.0238 -0.0229,0.0538 -0.009,0.0355 -0.008,0.068 0.002,0.0312 0.01,0.058 0.008,0.0254 0.0173,0.0454 0.008,0.0196 0.014,0.0299 l -0.0939,0.0352 q -0.009,-0.0141 -0.0214,-0.0406 -0.012,-0.0265 -0.0191,-0.0605 -0.008,-0.0357 -0.009,-0.0768 -8.7e-4,-0.0411 0.0106,-0.0848 0.0348,-0.13239 0.11268,-0.17904 0.0769,-0.0484 0.19018,-0.0186 z" />
        <path
           id="path960"
           style="font-style:normal;font-variant:normal;font-weight:normal;font-stretch:normal;font-size:1.41111112px;line-height:1.25;font-family:'Ubuntu Mono';-inkscape-font-specification:'Ubuntu Mono';letter-spacing:0.05291667px;word-spacing:0px;fill:#ffffff;fill-opacity:1;stroke:none;stroke-width:0.26458332"
           d="m 25.165042,95.660808 q 0.0353,0.01 0.055,0.0389 0.0201,0.0276 0.0106,0.0616 -0.01,0.0353 -0.0418,0.0498 -0.0319,0.0145 -0.0672,0.005 -0.0353,-0.01 -0.0564,-0.0393 -0.0211,-0.0294 -0.0112,-0.0647 0.01,-0.034 0.0424,-0.0467 0.0333,-0.0141 0.0686,-0.004 z m -0.085,0.36015 q -0.21194,-0.0595 -0.30449,-0.16314 -0.0935,-0.1054 -0.0565,-0.23719 0.0374,-0.13314 0.1717,-0.17311 0.13298,-0.0404 0.34492,0.0191 0.21195,0.0595 0.30586,0.16352 0.0926,0.10366 0.0552,0.23681 -0.037,0.13178 -0.17035,0.17349 -0.13433,0.04 -0.34628,-0.0195 z m 0.12356,-0.44018 q -0.0693,-0.0194 -0.13272,-0.0285 -0.0648,-0.009 -0.11631,-0.003 -0.0515,0.006 -0.0875,0.0297 -0.0359,0.0236 -0.0489,0.0698 -0.013,0.0462 0.005,0.0851 0.0184,0.0389 0.0593,0.0709 0.0408,0.032 0.10106,0.0577 0.0588,0.0253 0.12814,0.0448 0.0693,0.0195 0.13407,0.0288 0.0634,0.009 0.11496,0.003 0.0515,-0.006 0.0875,-0.0297 0.0359,-0.0236 0.0489,-0.0698 0.013,-0.0462 -0.005,-0.0851 -0.0184,-0.0389 -0.0593,-0.0709 -0.0409,-0.032 -0.0997,-0.0573 -0.0602,-0.0257 -0.1295,-0.0451 z" />
        <path
           id="path962"
           style="font-style:normal;font-variant:normal;font-weight:normal;font-stretch:normal;font-size:1.41111112px;line-height:1.25;font-family:'Ubuntu Mono';-inkscape-font-specification:'Ubuntu Mono';letter-spacing:0.05291667px;word-spacing:0px;fill:#ffffff;fill-opacity:1;stroke:none;stroke-width:0.26458332"
           d="m 27.211772,90.863496 q 0.0425,-0.10306 0.0198,-0.162785 -0.0235,-0.06157 -0.0926,-0.09008 -0.0444,-0.01828 -0.0819,-0.01241 -0.0375,0.0059 -0.0682,0.02837 -0.0306,0.02246 -0.0546,0.05838 -0.024,0.03591 -0.0417,0.07896 l -0.0113,0.0274 -0.0874,-0.03604 0.0156,-0.03783 q 0.0118,-0.0287 0.019,-0.06086 0.006,-0.034 0.002,-0.0647 -0.005,-0.03255 -0.0245,-0.05896 -0.0196,-0.02641 -0.0601,-0.04309 -0.0665,-0.02743 -0.11114,0.003 -0.0454,0.02861 -0.068,0.0834 -0.0231,0.0561 -0.0223,0.102225 -4.8e-4,0.04559 0.006,0.07868 l -0.0994,0.0079 q -0.008,-0.03547 -0.007,-0.09886 9.5e-4,-0.06524 0.0289,-0.133078 0.0264,-0.06392 0.0608,-0.103126 0.0345,-0.0392 0.075,-0.05607 0.0411,-0.01818 0.0861,-0.01638 0.0438,0.0013 0.0894,0.02008 0.0639,0.02635 0.0943,0.07857 0.0309,0.0509 0.0329,0.112768 0.0441,-0.05509 0.1164,-0.07869 0.071,-0.02413 0.15841,0.01191 0.0522,0.02151 0.0903,0.05861 0.0374,0.03525 0.0549,0.08522 0.0181,0.04867 0.0127,0.113604 -0.005,0.06363 -0.0371,0.141899 -0.0124,0.03001 -0.031,0.06047 -0.0168,0.0297 -0.0359,0.0539 -0.0178,0.0247 -0.0335,0.0442 -0.0164,0.0176 -0.0241,0.0252 l -0.084,-0.0591 q 0.019,-0.0166 0.0522,-0.0563 0.0332,-0.03974 0.0606,-0.10627 z" />
        <path
           id="path964"
           style="font-style:normal;font-variant:normal;font-weight:normal;font-stretch:normal;font-size:1.41111112px;line-height:1.25;font-family:'Ubuntu Mono';-inkscape-font-specification:'Ubuntu Mono';letter-spacing:0.05291667px;word-spacing:0px;fill:#ffffff;fill-opacity:1;stroke:none;stroke-width:0.26458332"
           d="m 27.222152,89.892642 q 0.0337,0.01455 0.0493,0.04591 0.0162,0.03007 0.002,0.06245 -0.0145,0.03368 -0.0481,0.04377 -0.0336,0.01008 -0.0673,-0.0045 -0.0337,-0.01455 -0.0506,-0.04647 -0.017,-0.03192 -0.002,-0.0656 0.014,-0.03238 0.0483,-0.04062 0.0349,-0.0095 0.0685,0.005 z m -0.1324,0.345541 q -0.20208,-0.08731 -0.27992,-0.202428 -0.0786,-0.116964 -0.0243,-0.242615 0.0549,-0.126944 0.19333,-0.148582 0.13718,-0.0222 0.33926,0.06512 0.20207,0.08732 0.28122,0.202986 0.0778,0.115112 0.023,0.242057 -0.0543,0.12565 -0.19203,0.149143 -0.13848,0.02164 -0.34056,-0.06568 z m 0.18135,-0.419698 q -0.0661,-0.02854 -0.12771,-0.04596 -0.0629,-0.01799 -0.11483,-0.01886 -0.0519,-7.94e-4 -0.0907,0.0177 -0.0388,0.0186 -0.0578,0.06264 -0.019,0.04404 -0.006,0.08503 0.013,0.04099 0.0492,0.07815 0.0362,0.03717 0.0924,0.07068 0.0549,0.03296 0.121,0.06151 0.0661,0.02855 0.12901,0.04652 0.0617,0.01741 0.11353,0.01831 0.0519,7.94e-4 0.0907,-0.0177 0.0388,-0.0186 0.0578,-0.06264 0.019,-0.04404 0.006,-0.08503 -0.013,-0.04099 -0.0492,-0.07815 -0.0362,-0.03717 -0.0911,-0.07013 -0.0562,-0.03352 -0.1223,-0.06207 z" />
        <path
           id="path966"
           style="font-style:normal;font-variant:normal;font-weight:normal;font-stretch:normal;font-size:1.41111112px;line-height:1.25;font-family:'Ubuntu Mono';-inkscape-font-specification:'Ubuntu Mono';letter-spacing:0.05291667px;word-spacing:0px;fill:#ffffff;fill-opacity:1;stroke:none;stroke-width:0.26458332"
           d="m 29.578992,85.51795 q -0.0368,-0.04904 -0.0798,-0.121224 -0.0423,-0.0734 -0.0833,-0.15748 -0.0422,-0.08478 -0.0772,-0.173546 -0.0362,-0.08947 -0.0583,-0.172386 l 0.0566,-0.09769 0.47992,0.277889 0.0516,-0.08915 0.083,0.04808 -0.0516,0.08914 0.19295,0.111723 -0.0566,0.09769 -0.19295,-0.111723 -0.19586,0.338265 z m -0.17903,-0.555342 q 0.0163,0.05348 0.0393,0.112419 0.0237,0.05772 0.0529,0.117049 0.028,0.05862 0.0606,0.114988 0.0333,0.05515 0.0682,0.104709 l 0.1393,-0.24057 z" />
        <path
           id="path968"
           style="font-style:normal;font-variant:normal;font-weight:normal;font-stretch:normal;font-size:1.41111112px;line-height:1.25;font-family:'Ubuntu Mono';-inkscape-font-specification:'Ubuntu Mono';letter-spacing:0.05291667px;word-spacing:0px;fill:#ffffff;fill-opacity:1;stroke:none;stroke-width:0.26458332"
           d="m 30.031202,84.451142 q 0.0314,0.01891 0.0428,0.05208 0.0121,0.03196 -0.006,0.06219 -0.0189,0.03144 -0.0535,0.03697 -0.0346,0.0055 -0.0661,-0.01338 -0.0314,-0.01891 -0.044,-0.0528 -0.0125,-0.0339 0.006,-0.06533 0.0182,-0.03023 0.0533,-0.03382 0.0358,-0.0048 0.0673,0.01411 z m -0.17727,0.324814 q -0.18863,-0.113466 -0.25045,-0.237924 -0.0623,-0.126395 0.008,-0.243689 0.0713,-0.118503 0.21141,-0.121494 0.13891,-0.0037 0.32755,0.109748 0.18863,0.113466 0.25166,0.238652 0.0618,0.124458 -0.01,0.242961 -0.0705,0.117295 -0.2102,0.122222 -0.14012,0.003 -0.32876,-0.110476 z m 0.23566,-0.391785 q -0.0617,-0.0371 -0.12044,-0.06257 -0.06,-0.0262 -0.11129,-0.034 -0.0513,-0.0078 -0.0922,0.0055 -0.0409,0.01326 -0.0656,0.05438 -0.0247,0.04111 -0.0173,0.08347 0.007,0.04236 0.0384,0.08402 0.0309,0.04166 0.0822,0.08237 0.0501,0.03999 0.11172,0.07708 0.0617,0.0371 0.12166,0.0633 0.0588,0.02548 0.11008,0.03328 0.0513,0.0078 0.0922,-0.0055 0.0409,-0.01327 0.0656,-0.05438 0.0247,-0.04111 0.0173,-0.08347 -0.007,-0.04236 -0.0384,-0.08402 -0.0309,-0.04166 -0.081,-0.08165 -0.0513,-0.04071 -0.11293,-0.07781 z" />
        <path
           id="path970"
           style="font-style:normal;font-variant:normal;font-weight:normal;font-stretch:normal;font-size:1.41111112px;line-height:1.25;font-family:'Ubuntu Mono';-inkscape-font-specification:'Ubuntu Mono';letter-spacing:0.05291667px;word-spacing:0px;fill:#ffffff;fill-opacity:1;stroke:none;stroke-width:0.26458332"
           d="m 32.892652,80.118067 q 0.12119,-0.145313 0.23412,-0.166837 0.11293,-0.02152 0.21454,0.05699 0.0458,0.03537 0.0737,0.08009 0.0279,0.04471 0.0316,0.09755 0.005,0.05172 -0.0169,0.111812 -0.0206,0.05898 -0.0706,0.123741 -0.0207,0.0268 -0.0459,0.05015 -0.0232,0.02309 -0.0469,0.04223 -0.0237,0.01913 -0.0431,0.03269 -0.0205,0.01269 -0.031,0.01705 l -0.0655,-0.07912 q 0.0227,-0.01096 0.0635,-0.03832 0.0416,-0.02847 0.0856,-0.08542 0.0345,-0.04467 0.0478,-0.08258 0.0132,-0.03791 0.0103,-0.06872 -0.003,-0.03279 -0.0195,-0.05786 -0.0154,-0.02619 -0.04,-0.04517 -0.038,-0.02934 -0.0773,-0.03837 -0.0396,-0.01101 -0.0848,0.0058 -0.0443,0.01573 -0.0975,0.0638 -0.0534,0.04609 -0.11815,0.129833 -0.044,-0.04466 -0.0838,-0.0808 -0.0401,-0.03811 -0.0786,-0.07141 -0.0387,-0.03527 -0.0781,-0.06745 -0.0385,-0.03329 -0.0814,-0.07004 l 0.25711,-0.332753 0.0782,0.06039 -0.19499,0.252356 q 0.0148,0.0132 0.0387,0.03527 0.0237,0.0201 0.0499,0.0439 0.0262,0.0238 0.0501,0.04588 0.024,0.02208 0.0387,0.03527 z" />
        <path
           id="path972"
           style="font-style:normal;font-variant:normal;font-weight:normal;font-stretch:normal;font-size:1.41111112px;line-height:1.25;font-family:'Ubuntu Mono';-inkscape-font-specification:'Ubuntu Mono';letter-spacing:0.05291667px;word-spacing:0px;fill:#ffffff;fill-opacity:1;stroke:none;stroke-width:0.26458332"
           d="m 33.538192,79.431366 q 0.0287,0.02291 0.0355,0.05729 0.008,0.03328 -0.0143,0.06083 -0.0229,0.02866 -0.058,0.02955 -0.035,9e-4 -0.0637,-0.02202 -0.0287,-0.02291 -0.0366,-0.05817 -0.008,-0.03526 0.015,-0.06391 0.022,-0.02755 0.0573,-0.02646 0.0361,-1.1e-5 0.0648,0.0229 z m -0.21874,0.29846 q -0.17194,-0.137464 -0.21671,-0.269016 -0.045,-0.133535 0.0405,-0.240445 0.0864,-0.108012 0.22564,-0.09241 0.13818,0.01472 0.31011,0.152186 0.17194,0.137464 0.21782,0.269897 0.0448,0.131552 -0.0416,0.239564 -0.0855,0.10691 -0.22454,0.09329 -0.13928,-0.0156 -0.31122,-0.153066 z m 0.2855,-0.357101 q -0.0562,-0.04494 -0.11109,-0.07798 -0.056,-0.03392 -0.1058,-0.04845 -0.0498,-0.01453 -0.0921,-0.0068 -0.0423,0.0077 -0.0723,0.0452 -0.03,0.03747 -0.0282,0.08045 0.002,0.04297 0.0269,0.08836 0.0251,0.04539 0.0705,0.09254 0.0443,0.04627 0.10052,0.09121 0.0562,0.04494 0.1122,0.07886 0.0549,0.03304 0.10469,0.04757 0.0498,0.01453 0.0921,0.0068 0.0423,-0.0077 0.0723,-0.0452 0.03,-0.03747 0.0282,-0.08045 -0.002,-0.04297 -0.0269,-0.08836 -0.0251,-0.04539 -0.0694,-0.09166 -0.0454,-0.04715 -0.10162,-0.09209 z" />
        <path
           id="path974"
           style="font-style:normal;font-variant:normal;font-weight:normal;font-stretch:normal;font-size:1.41111112px;line-height:1.25;font-family:'Ubuntu Mono';-inkscape-font-specification:'Ubuntu Mono';letter-spacing:0.05291667px;word-spacing:0px;fill:#ffffff;fill-opacity:1;stroke:none;stroke-width:0.26458332"
           d="m 36.946252,75.778434 q -0.0894,-0.09024 -0.1338,-0.183262 -0.0444,-0.09501 -0.046,-0.18682 -5.3e-4,-0.0928 0.0398,-0.182404 0.0404,-0.0896 0.12159,-0.172021 l 0.0765,0.06324 q -0.0522,0.05362 -0.0854,0.10834 -0.0332,0.05272 -0.0435,0.110543 -0.0113,0.05682 0.002,0.116757 0.0137,0.05994 0.0553,0.125998 0.0131,-0.03486 0.0343,-0.06968 0.0221,-0.03581 0.0542,-0.06758 0.0521,-0.05163 0.10412,-0.07133 0.053,-0.02069 0.10186,-0.01546 0.0479,0.0042 0.0926,0.0294 0.0448,0.02517 0.0815,0.06227 0.0338,0.03409 0.0585,0.08111 0.0237,0.04602 0.0304,0.09893 0.006,0.05192 -0.0115,0.10671 -0.0182,0.05379 -0.0684,0.103435 -0.10328,0.102265 -0.22293,0.08371 -0.11965,-0.01855 -0.24177,-0.141888 z m 0.13399,-0.259768 q -0.0321,0.03177 -0.0532,0.0646 -0.0201,0.03183 -0.0353,0.07067 0.009,0.01102 0.0188,0.02105 0.009,0.009 0.0199,0.02005 0.0387,0.03911 0.0785,0.06924 0.0398,0.02814 0.0796,0.0423 0.0399,0.01217 0.0788,0.0054 0.038,-0.0078 0.074,-0.04354 0.0301,-0.02979 0.0382,-0.06168 0.007,-0.03289 10e-4,-0.06485 -0.006,-0.03196 -0.0236,-0.05999 -0.0178,-0.03002 -0.0387,-0.05108 -0.0606,-0.06117 -0.12041,-0.06545 -0.0589,-0.0053 -0.118,0.0533 z" />
        <path
           id="path976"
           style="font-style:normal;font-variant:normal;font-weight:normal;font-stretch:normal;font-size:1.41111112px;line-height:1.25;font-family:'Ubuntu Mono';-inkscape-font-specification:'Ubuntu Mono';letter-spacing:0.05291667px;word-spacing:0px;fill:#ffffff;fill-opacity:1;stroke:none;stroke-width:0.26458332"
           d="m 37.678142,74.919604 q 0.0254,0.02649 0.0276,0.06147 0.003,0.034 -0.0222,0.05841 -0.0265,0.02538 -0.0614,0.02164 -0.0349,-0.0037 -0.0602,-0.03024 -0.0254,-0.02649 -0.0286,-0.06249 -0.003,-0.036 0.0233,-0.06138 0.0255,-0.0244 0.0603,-0.01867 0.0358,0.0048 0.0612,0.03126 z m -0.25624,0.266955 q -0.15228,-0.158967 -0.17929,-0.295281 -0.027,-0.138309 0.0719,-0.232993 0.0999,-0.09566 0.23587,-0.0618 0.13503,0.03284 0.2873,0.191811 0.15228,0.158967 0.18027,0.2963 0.027,0.136313 -0.0729,0.231974 -0.0988,0.09468 -0.2349,0.06282 -0.136,-0.03386 -0.28828,-0.19283 z m 0.33016,-0.316266 q -0.0498,-0.05197 -0.0998,-0.09197 -0.051,-0.04102 -0.0985,-0.062 -0.0474,-0.02098 -0.0904,-0.01891 -0.043,0.0021 -0.0776,0.03526 -0.0346,0.03319 -0.0386,0.07602 -0.004,0.04283 0.015,0.09114 0.0189,0.04831 0.0577,0.101044 0.0378,0.05171 0.0876,0.103683 0.0498,0.05197 0.1008,0.09299 0.05,0.04 0.0975,0.06098 0.0474,0.02098 0.0904,0.01891 0.043,-0.0021 0.0776,-0.03526 0.0346,-0.03319 0.0386,-0.07602 0.004,-0.04283 -0.015,-0.09114 -0.0189,-0.04831 -0.0567,-0.100025 -0.0388,-0.05273 -0.0886,-0.104702 z" />
        <path
           id="path978"
           style="font-style:normal;font-variant:normal;font-weight:normal;font-stretch:normal;font-size:1.41111112px;line-height:1.25;font-family:'Ubuntu Mono';-inkscape-font-specification:'Ubuntu Mono';letter-spacing:0.05291667px;word-spacing:0px;fill:#ffffff;fill-opacity:1;stroke:none;stroke-width:0.26458332"
           d="m 41.863612,71.941715 q -0.0548,-0.08414 -0.0996,-0.190059 -0.0445,-0.107895 -0.0749,-0.215852 -0.0312,-0.109082 -0.0455,-0.209773 -0.0151,-0.101816 -0.0118,-0.176902 l -0.33754,0.255503 -0.0613,-0.08101 0.44105,-0.333857 0.0588,0.07763 q -0.004,0.06493 0.007,0.16112 0.0109,0.09619 0.0379,0.206702 0.0273,0.108536 0.073,0.222634 0.0448,0.112973 0.10875,0.211467 z" />
        <path
           id="path980"
           style="font-style:normal;font-variant:normal;font-weight:normal;font-stretch:normal;font-size:1.41111112px;line-height:1.25;font-family:'Ubuntu Mono';-inkscape-font-specification:'Ubuntu Mono';letter-spacing:0.05291667px;word-spacing:0px;fill:#ffffff;fill-opacity:1;stroke:none;stroke-width:0.26458332"
           d="m 42.377732,70.994103 q 0.0217,0.02962 0.0192,0.06459 -10e-4,0.03414 -0.0297,0.05496 -0.0296,0.02165 -0.0637,0.01334 -0.0341,-0.0083 -0.0557,-0.03793 -0.0216,-0.02962 -0.0201,-0.06573 0.002,-0.03611 0.0312,-0.05776 0.0285,-0.02082 0.0622,-0.01053 0.0349,0.0095 0.0565,0.03907 z m -0.28928,0.230747 q -0.12993,-0.177698 -0.13869,-0.316385 -0.008,-0.14066 0.10204,-0.22145 0.11163,-0.08162 0.24197,-0.03008 0.1295,0.0504 0.25943,0.2281 0.12993,0.177698 0.13952,0.317525 0.009,0.138687 -0.10287,0.220311 -0.11049,0.08079 -0.24114,0.03122 -0.13033,-0.05154 -0.26026,-0.229239 z m 0.36906,-0.269856 q -0.0425,-0.05809 -0.0868,-0.104356 -0.0452,-0.0474 -0.0894,-0.07447 -0.0443,-0.02707 -0.0871,-0.03069 -0.0429,-0.0036 -0.0816,0.02469 -0.0387,0.02832 -0.0483,0.07026 -0.01,0.04194 0.003,0.09233 0.0124,0.05039 0.0439,0.107785 0.0306,0.05626 0.0731,0.11435 0.0425,0.05809 0.0876,0.105494 0.0443,0.04626 0.0886,0.07333 0.0443,0.02707 0.0871,0.03069 0.0429,0.0036 0.0816,-0.02469 0.0387,-0.02832 0.0483,-0.07026 0.01,-0.04194 -0.003,-0.09233 -0.0124,-0.05039 -0.043,-0.106646 -0.0315,-0.0574 -0.074,-0.115489 z" />
        <path
           id="path982"
           style="font-style:normal;font-variant:normal;font-weight:normal;font-stretch:normal;font-size:1.41111112px;line-height:1.25;font-family:'Ubuntu Mono';-inkscape-font-specification:'Ubuntu Mono';letter-spacing:0.05291667px;word-spacing:0px;fill:#ffffff;fill-opacity:1;stroke:none;stroke-width:0.26458332"
           d="m 47.169812,68.194423 q 0.0542,0.0958 0.0261,0.189492 -0.0268,0.093 -0.15086,0.163186 -0.0712,0.0403 -0.12833,0.04829 -0.0578,0.0068 -0.10271,-0.0067 -0.0444,-0.01542 -0.0775,-0.04531 -0.0319,-0.03059 -0.052,-0.06621 -0.0368,-0.06509 -0.0297,-0.135598 0.007,-0.07051 0.0389,-0.129006 -0.13775,1.15e-4 -0.20654,-0.121471 -0.0236,-0.04176 -0.0292,-0.08886 -0.006,-0.04711 0.008,-0.09203 0.0135,-0.04492 0.0455,-0.08575 0.0333,-0.04151 0.0861,-0.0714 0.0614,-0.03475 0.11481,-0.04064 0.0546,-0.0066 0.0983,0.0076 0.043,0.01296 0.0754,0.04163 0.0317,0.02744 0.0505,0.0606 0.0368,0.06509 0.0308,0.131752 -0.007,0.06543 -0.0338,0.118001 0.16055,-0.0114 0.2363,0.122473 z m -0.38638,0.228347 q 0.0111,0.01965 0.031,0.03759 0.0192,0.01671 0.0468,0.0254 0.0276,0.0087 0.0628,0.005 0.0345,-0.0049 0.075,-0.02786 0.0381,-0.02154 0.0595,-0.04666 0.022,-0.02704 0.0295,-0.05396 0.008,-0.02884 0.004,-0.05582 -0.004,-0.02697 -0.0164,-0.04908 -0.0396,-0.07 -0.11081,-0.07836 -0.0719,-0.0096 -0.17144,0.0208 -0.0338,0.05481 -0.0379,0.110632 -0.004,0.05582 0.0279,0.112312 z m 0.0548,-0.544981 q -0.009,-0.01597 -0.0275,-0.03145 -0.0192,-0.01671 -0.0442,-0.02364 -0.0245,-0.0089 -0.0553,-0.006 -0.0315,0.0016 -0.0659,0.02107 -0.0356,0.02015 -0.0539,0.0451 -0.0171,0.02426 -0.0233,0.05048 -0.007,0.025 -0.002,0.05005 0.005,0.02312 0.0161,0.04277 0.0285,0.05035 0.0891,0.07442 0.0612,0.02214 0.1558,-0.0055 0.0314,-0.05342 0.0376,-0.105558 0.007,-0.05283 -0.026,-0.111778 z" />
        <path
           id="path984"
           style="font-style:normal;font-variant:normal;font-weight:normal;font-stretch:normal;font-size:1.41111112px;line-height:1.25;font-family:'Ubuntu Mono';-inkscape-font-specification:'Ubuntu Mono';letter-spacing:0.05291667px;word-spacing:0px;fill:#ffffff;fill-opacity:1;stroke:none;stroke-width:0.26458332"
           d="m 47.555982,67.725424 q 0.0175,0.03223 0.0105,0.06657 -0.006,0.03367 -0.0368,0.05052 -0.0322,0.01753 -0.0649,0.0048 -0.0327,-0.01276 -0.0502,-0.04499 -0.0175,-0.03223 -0.0112,-0.06781 0.006,-0.03558 0.0386,-0.05311 0.031,-0.01686 0.0631,-0.0022 0.0333,0.014 0.0508,0.04623 z m -0.31735,0.190305 q -0.10519,-0.193373 -0.0955,-0.331996 0.0103,-0.140537 0.13053,-0.205945 0.12148,-0.06608 0.24382,0.0023 0.12166,0.06715 0.22686,0.260519 0.10519,0.193373 0.0961,0.333236 -0.01,0.138623 -0.13121,0.204705 -0.12024,0.06541 -0.24314,-0.0011 -0.12234,-0.06839 -0.22754,-0.261759 z m 0.40162,-0.218477 q -0.0344,-0.06322 -0.0722,-0.114953 -0.0385,-0.05297 -0.0787,-0.08568 -0.0403,-0.03271 -0.0823,-0.04199 -0.042,-0.0093 -0.0841,0.01364 -0.0422,0.02293 -0.0572,0.06323 -0.015,0.0403 -0.01,0.09189 0.006,0.05159 0.0292,0.112652 0.0229,0.05983 0.0573,0.123045 0.0344,0.06322 0.0728,0.116192 0.0378,0.05174 0.0781,0.08444 0.0403,0.03271 0.0823,0.04199 0.042,0.0093 0.0841,-0.01364 0.0421,-0.02293 0.0572,-0.06323 0.015,-0.0403 0.01,-0.09189 -0.006,-0.05159 -0.0285,-0.111412 -0.0236,-0.06107 -0.058,-0.124284 z" />
        <path
           id="path986"
           style="font-style:normal;font-variant:normal;font-weight:normal;font-stretch:normal;font-size:1.41111112px;line-height:1.25;font-family:'Ubuntu Mono';-inkscape-font-specification:'Ubuntu Mono';letter-spacing:0.05291667px;word-spacing:0px;fill:#ffffff;fill-opacity:1;stroke:none;stroke-width:0.26458332"
           d="m 52.565382,65.314392 q 0.0971,0.242327 0.0285,0.412691 -0.0691,0.169054 -0.30564,0.26536 l -0.0407,-0.09012 q 0.1467,-0.05878 0.21268,-0.152105 0.0668,-0.09516 0.0384,-0.249482 -0.0257,0.02701 -0.06,0.05139 -0.0348,0.02308 -0.0768,0.03988 -0.0694,0.02782 -0.12445,0.02706 -0.0556,-0.0021 -0.098,-0.02457 -0.043,-0.02382 -0.0739,-0.06311 -0.0309,-0.03929 -0.0509,-0.08906 -0.0178,-0.04454 -0.0218,-0.09616 -0.005,-0.05293 0.0104,-0.102986 0.0149,-0.05006 0.0521,-0.09384 0.0372,-0.04378 0.10268,-0.07002 0.13361,-0.05353 0.23846,0.01087 0.10485,0.0644 0.16888,0.224205 z m -0.22734,0.183821 q 0.0419,-0.0168 0.0741,-0.03883 0.0335,-0.02255 0.0618,-0.05061 -0.004,-0.01362 -0.009,-0.02541 -0.005,-0.01179 -0.01,-0.02489 -0.0205,-0.05109 -0.0467,-0.09378 -0.0249,-0.04322 -0.0569,-0.06993 -0.0307,-0.02723 -0.07,-0.03429 -0.0385,-0.0089 -0.0857,0.01001 -0.0393,0.01575 -0.0587,0.04327 -0.0199,0.02622 -0.027,0.05793 -0.008,0.0304 -0.003,0.06368 0.006,0.03275 0.0165,0.06026 0.032,0.0799 0.0842,0.107648 0.053,0.02591 0.13023,-0.0051 z" />
        <path
           id="path988"
           style="font-style:normal;font-variant:normal;font-weight:normal;font-stretch:normal;font-size:1.41111112px;line-height:1.25;font-family:'Ubuntu Mono';-inkscape-font-specification:'Ubuntu Mono';letter-spacing:0.05291667px;word-spacing:0px;fill:#ffffff;fill-opacity:1;stroke:none;stroke-width:0.26458332"
           d="m 53.123572,65.175145 q 0.0131,0.03428 0.002,0.06738 -0.0102,0.03259 -0.0432,0.04516 -0.0343,0.01307 -0.0649,-0.0039 -0.0307,-0.01701 -0.0437,-0.05129 -0.0131,-0.03428 -0.002,-0.0687 0.011,-0.03442 0.0453,-0.04749 0.033,-0.01257 0.0628,0.0063 0.0311,0.01833 0.0442,0.05261 z m -0.33992,0.146237 q -0.0784,-0.205685 -0.0503,-0.341768 0.029,-0.137905 0.15686,-0.186676 0.12921,-0.04928 0.24133,0.03483 0.11161,0.08279 0.19005,0.288472 0.0784,0.205685 0.0508,0.343087 -0.0282,0.136083 -0.15736,0.185358 -0.1279,0.04877 -0.24082,-0.03351 -0.11212,-0.08411 -0.19056,-0.289791 z m 0.4272,-0.162907 q -0.0256,-0.06724 -0.0562,-0.123559 -0.031,-0.05763 -0.0666,-0.09542 -0.0356,-0.03779 -0.0759,-0.0526 -0.0404,-0.01481 -0.0852,0.0023 -0.0448,0.0171 -0.0651,0.05503 -0.0203,0.03793 -0.0216,0.0898 -10e-4,0.05187 0.0139,0.115536 0.0147,0.06235 0.0404,0.129592 0.0256,0.06724 0.0567,0.124877 0.0305,0.05632 0.0661,0.0941 0.0356,0.03779 0.0759,0.05259 0.0404,0.01481 0.0852,-0.0023 0.0448,-0.0171 0.0651,-0.05503 0.0203,-0.03793 0.0216,-0.0898 10e-4,-0.05187 -0.0134,-0.114217 -0.0152,-0.06367 -0.0409,-0.130911 z" />
        <path
           id="path990"
           style="font-style:normal;font-variant:normal;font-weight:normal;font-stretch:normal;font-size:1.41111112px;line-height:1.25;font-family:'Ubuntu Mono';-inkscape-font-specification:'Ubuntu Mono';letter-spacing:0.05291667px;word-spacing:0px;fill:#ffffff;fill-opacity:1;stroke:none;stroke-width:0.26458332"
           d="m 57.116102,63.61808 q 0.0621,-0.046 0.11649,-0.104521 0.054,-0.05988 0.0926,-0.13899 l 0.079,-0.02133 0.20187,0.747936 0.1594,-0.04302 0.0257,0.09537 -0.45367,0.122445 -0.0257,-0.09537 0.18256,-0.04927 -0.15958,-0.591265 q -0.0113,0.01767 -0.0291,0.03854 -0.0168,0.01914 -0.039,0.03975 -0.0208,0.02024 -0.0448,0.03986 -0.0239,0.01962 -0.0476,0.03478 z" />
        <path
           id="path992"
           style="font-style:normal;font-variant:normal;font-weight:normal;font-stretch:normal;font-size:1.41111112px;line-height:1.25;font-family:'Ubuntu Mono';-inkscape-font-specification:'Ubuntu Mono';letter-spacing:0.05291667px;word-spacing:0px;fill:#ffffff;fill-opacity:1;stroke:none;stroke-width:0.26458332"
           d="m 58.237562,63.571951 q 0.009,0.03558 -0.006,0.06709 -0.014,0.03117 -0.0482,0.03979 -0.0356,0.009 -0.064,-0.01152 -0.0284,-0.02048 -0.0374,-0.05606 -0.009,-0.03558 0.006,-0.06846 0.015,-0.03288 0.0506,-0.04185 0.0342,-0.0086 0.0616,0.01358 0.0288,0.02185 0.0378,0.05743 z m -0.35472,0.105387 q -0.0538,-0.213461 -0.01,-0.345307 0.0449,-0.133559 0.17766,-0.167004 0.1341,-0.03379 0.23558,0.06288 0.10114,0.0953 0.15493,0.308759 0.0538,0.213461 0.0102,0.346676 -0.0439,0.131846 -0.178,0.165635 -0.13273,0.03345 -0.23524,-0.06151 -0.10149,-0.09667 -0.15527,-0.310128 z m 0.44335,-0.111712 q -0.0176,-0.06979 -0.0413,-0.129292 -0.0241,-0.06087 -0.0549,-0.102571 -0.0309,-0.0417 -0.0693,-0.06113 -0.0384,-0.01944 -0.0849,-0.0077 -0.0465,0.01172 -0.0711,0.04702 -0.0246,0.0353 -0.032,0.08665 -0.007,0.05135 2.1e-4,0.116363 0.007,0.06364 0.0249,0.13343 0.0176,0.06979 0.0416,0.13066 0.0237,0.05951 0.0546,0.101203 0.0309,0.0417 0.0692,0.06113 0.0384,0.01944 0.0849,0.0077 0.0465,-0.01172 0.0711,-0.04702 0.0246,-0.0353 0.032,-0.08665 0.007,-0.05135 1.3e-4,-0.114995 -0.008,-0.06501 -0.0252,-0.134797 z" />
        <path
           id="path994"
           style="font-style:normal;font-variant:normal;font-weight:normal;font-stretch:normal;font-size:1.41111112px;line-height:1.25;font-family:'Ubuntu Mono';-inkscape-font-specification:'Ubuntu Mono';letter-spacing:0.05291667px;word-spacing:0px;fill:#ffffff;fill-opacity:1;stroke:none;stroke-width:0.26458332"
           d="m 58.982282,63.392337 q 0.008,0.03572 -0.007,0.06698 -0.0145,0.03093 -0.0488,0.03898 -0.0357,0.0084 -0.0638,-0.01259 -0.0281,-0.02096 -0.0365,-0.05668 -0.008,-0.03572 0.007,-0.06835 0.0156,-0.03263 0.0513,-0.04099 0.0343,-0.008 0.0614,0.01461 0.0284,0.02233 0.0368,0.05805 z m -0.35642,0.09942 q -0.0502,-0.214333 -0.004,-0.345424 0.0472,-0.132787 0.18043,-0.164002 0.13464,-0.03154 0.23449,0.06682 0.0995,0.09698 0.14973,0.311314 0.0502,0.214333 0.004,0.346798 -0.0461,0.131091 -0.18075,0.162628 -0.13327,0.03121 -0.23418,-0.06544 -0.0999,-0.09835 -0.15004,-0.312688 z m 0.44515,-0.104262 q -0.0164,-0.07007 -0.0391,-0.129967 -0.023,-0.06127 -0.0532,-0.103478 -0.0302,-0.04221 -0.0682,-0.06229 -0.038,-0.02008 -0.0847,-0.0091 -0.0467,0.01094 -0.0719,0.04582 -0.0252,0.03488 -0.0335,0.0861 -0.008,0.05122 -0.002,0.11635 0.006,0.06376 0.0226,0.133828 0.0164,0.07007 0.0395,0.13134 0.0227,0.0599 0.0529,0.102105 0.0302,0.04221 0.0682,0.06229 0.038,0.02008 0.0847,0.0091 0.0467,-0.01094 0.0719,-0.04582 0.0252,-0.03488 0.0335,-0.0861 0.008,-0.05122 0.002,-0.114976 -0.007,-0.06513 -0.023,-0.135202 z" />
        <path
           id="path996"
           style="font-style:normal;font-variant:normal;font-weight:normal;font-stretch:normal;font-size:1.41111112px;line-height:1.25;font-family:'Ubuntu Mono';-inkscape-font-specification:'Ubuntu Mono';letter-spacing:0.05291667px;word-spacing:0px;fill:#ffffff;fill-opacity:1;stroke:none;stroke-width:0.26458332"
           d="m 63.146922,62.383192 q 0.0677,-0.0373 0.1294,-0.08804 0.0615,-0.05214 0.11028,-0.125392 l 0.0812,-0.01059 0.10025,0.768186 0.16372,-0.02136 0.0128,0.09795 -0.46595,0.06081 -0.0128,-0.09795 0.18749,-0.02447 -0.0793,-0.607273 q -0.0136,0.016 -0.0339,0.03431 -0.0192,0.01673 -0.0439,0.03419 -0.0234,0.01728 -0.0497,0.03352 -0.0263,0.01625 -0.0518,0.02811 z" />
        <path
           id="path998"
           style="font-style:normal;font-variant:normal;font-weight:normal;font-stretch:normal;font-size:1.41111112px;line-height:1.25;font-family:'Ubuntu Mono';-inkscape-font-specification:'Ubuntu Mono';letter-spacing:0.05291667px;word-spacing:0px;fill:#ffffff;fill-opacity:1;stroke:none;stroke-width:0.26458332"
           d="m 63.910822,62.285822 q 0.0683,-0.03617 0.13085,-0.08587 0.0624,-0.05111 0.11235,-0.123542 l 0.0813,-0.0092 0.0875,0.769747 0.16405,-0.01864 0.0112,0.09815 -0.4669,0.05305 -0.0111,-0.09815 0.18788,-0.02135 -0.0691,-0.608507 q -0.0138,0.01577 -0.0345,0.03374 -0.0195,0.01641 -0.0445,0.03346 -0.0236,0.01689 -0.0503,0.03269 -0.0266,0.01581 -0.0523,0.02724 z" />
        <path
           id="path1000"
           style="font-style:normal;font-variant:normal;font-weight:normal;font-stretch:normal;font-size:1.41111112px;line-height:1.25;font-family:'Ubuntu Mono';-inkscape-font-specification:'Ubuntu Mono';letter-spacing:0.05291667px;word-spacing:0px;fill:#ffffff;fill-opacity:1;stroke:none;stroke-width:0.26458332"
           d="m 65.026402,62.408274 q 0.004,0.03652 -0.0164,0.06538 -0.0185,0.02873 -0.0536,0.03213 -0.0365,0.0035 -0.0616,-0.02097 -0.0251,-0.02451 -0.0286,-0.06103 -0.004,-0.03652 0.0162,-0.06678 0.0198,-0.03027 0.0563,-0.0338 0.0351,-0.0034 0.0589,0.02265 0.0252,0.02591 0.0287,0.06243 z m -0.3665,0.05108 q -0.0212,-0.219109 0.0419,-0.342894 0.0644,-0.125326 0.20066,-0.138519 0.13764,-0.01333 0.22351,0.09745 0.0857,0.109368 0.10694,0.328477 0.0212,0.219108 -0.0418,0.344298 -0.0632,0.123786 -0.2008,0.137114 -0.13624,0.01319 -0.22338,-0.09604 -0.0859,-0.110773 -0.10708,-0.329881 z m 0.45507,-0.04407 q -0.007,-0.07163 -0.0215,-0.134019 -0.0147,-0.06379 -0.039,-0.109644 -0.0243,-0.04585 -0.0593,-0.07081 -0.035,-0.02496 -0.0828,-0.02034 -0.0478,0.0046 -0.0773,0.03584 -0.0296,0.03122 -0.0446,0.08088 -0.015,0.04966 -0.0172,0.115083 -0.002,0.06402 0.005,0.135652 0.007,0.07163 0.0216,0.135425 0.0145,0.06239 0.0388,0.108238 0.0243,0.04585 0.0593,0.07081 0.035,0.02496 0.0828,0.02034 0.0478,-0.0046 0.0773,-0.03584 0.0296,-0.03122 0.0446,-0.08088 0.015,-0.04966 0.0174,-0.113679 0.002,-0.06543 -0.005,-0.137057 z" />
        <path
           id="path1002"
           style="font-style:normal;font-variant:normal;font-weight:normal;font-stretch:normal;font-size:1.41111112px;line-height:1.25;font-family:'Ubuntu Mono';-inkscape-font-specification:'Ubuntu Mono';letter-spacing:0.05291667px;word-spacing:0px;fill:#ffffff;fill-opacity:1;stroke:none;stroke-width:0.26458332"
           d="m 69.287402,61.959709 q 0.072,-0.02807 0.13985,-0.07025 0.0678,-0.0436 0.12583,-0.109795 l 0.0818,1.76e-4 -0.002,0.774699 0.1651,3.44e-4 -2.1e-4,0.09878 -0.4699,-0.001 2.1e-4,-0.09878 0.18909,3.97e-4 0.001,-0.612421 q -0.0156,0.01408 -0.0382,0.02955 -0.0212,0.01407 -0.048,0.02812 -0.0254,0.01406 -0.0537,0.02669 -0.0282,0.01264 -0.0551,0.02105 z" />
        <path
           id="path1004"
           style="font-style:normal;font-variant:normal;font-weight:normal;font-stretch:normal;font-size:1.41111112px;line-height:1.25;font-family:'Ubuntu Mono';-inkscape-font-specification:'Ubuntu Mono';letter-spacing:0.05291667px;word-spacing:0px;fill:#ffffff;fill-opacity:1;stroke:none;stroke-width:0.26458332"
           d="m 70.543252,62.014951 q -7.9e-4,0.04515 -0.02,0.08714 -0.0177,0.04201 -0.0481,0.08238 -0.029,0.04039 -0.0664,0.07922 -0.0374,0.03883 -0.0762,0.07622 -0.0216,0.02077 -0.0503,0.04988 -0.0288,0.02911 -0.0547,0.05967 -0.026,0.03057 -0.0435,0.05989 -0.0175,0.02931 -0.0179,0.05048 l 0.4021,0.0074 -0.002,0.09876 -0.52907,-0.0098 q -0.001,-0.0071 -0.001,-0.01413 1.5e-4,-0.0085 2.6e-4,-0.01552 0.001,-0.05926 0.0218,-0.109682 0.0207,-0.05043 0.0526,-0.095 0.0319,-0.04457 0.0707,-0.08337 0.0403,-0.04018 0.0791,-0.07757 0.0316,-0.03046 0.0604,-0.05957 0.0302,-0.02908 0.0519,-0.05832 0.0231,-0.02921 0.0364,-0.06001 0.0147,-0.03219 0.0153,-0.06605 8e-4,-0.03809 -0.0115,-0.06514 -0.0108,-0.02702 -0.0316,-0.04434 -0.0194,-0.01871 -0.0461,-0.02767 -0.0266,-0.009 -0.0577,-0.0095 -0.0367,-6.88e-4 -0.0679,0.0086 -0.0298,0.0093 -0.0541,0.02299 -0.0228,0.01369 -0.04,0.02749 -0.0172,0.01238 -0.0258,0.02069 l -0.0563,-0.0829 q 0.0115,-0.01249 0.0344,-0.03041 0.0229,-0.01792 0.0542,-0.03287 0.0328,-0.01633 0.0725,-0.02689 0.0397,-0.01056 0.0849,-0.0097 0.13686,0.0025 0.20058,0.06722 0.0652,0.0633 0.063,0.180407 z" />
        <path
           id="path1006"
           style="font-style:normal;font-variant:normal;font-weight:normal;font-stretch:normal;font-size:1.41111112px;line-height:1.25;font-family:'Ubuntu Mono';-inkscape-font-specification:'Ubuntu Mono';letter-spacing:0.05291667px;word-spacing:0px;fill:#ffffff;fill-opacity:1;stroke:none;stroke-width:0.26458332"
           d="m 71.147102,62.231323 q -0.001,0.03667 -0.0248,0.06267 -0.0221,0.02606 -0.0573,0.02483 -0.0367,-0.0013 -0.0583,-0.02886 -0.0216,-0.02758 -0.0204,-0.06425 0.001,-0.03667 0.0248,-0.06408 0.0236,-0.02742 0.0602,-0.02614 0.0353,0.0012 0.0554,0.03017 0.0216,0.02899 0.0203,0.06566 z m -0.37003,0.0026 q 0.008,-0.219999 0.0865,-0.334442 0.0803,-0.115803 0.21708,-0.111029 0.1382,0.0048 0.20881,0.125893 0.0707,0.119659 0.063,0.339659 -0.008,0.219999 -0.0866,0.335852 -0.0788,0.114442 -0.21704,0.109619 -0.13679,-0.0048 -0.20886,-0.124483 -0.0706,-0.121069 -0.0629,-0.341069 z m 0.45692,0.01595 q 0.003,-0.07192 -0.004,-0.13568 -0.006,-0.06517 -0.0243,-0.113804 -0.0181,-0.04864 -0.0495,-0.07797 -0.0315,-0.02934 -0.0794,-0.03101 -0.048,-0.0017 -0.0814,0.0254 -0.0334,0.02707 -0.0548,0.07433 -0.0214,0.04726 -0.0321,0.111836 -0.0107,0.06317 -0.0132,0.135089 -0.003,0.07192 0.004,0.137089 0.006,0.06376 0.0243,0.112395 0.0181,0.04864 0.0495,0.07797 0.0314,0.02934 0.0794,0.03101 0.048,0.0017 0.0814,-0.0254 0.0334,-0.02707 0.0548,-0.07433 0.0214,-0.04726 0.0321,-0.110425 0.0107,-0.06458 0.0132,-0.1365 z" />
        <path
           id="path1008"
           style="font-style:normal;font-variant:normal;font-weight:normal;font-stretch:normal;font-size:1.41111112px;line-height:1.25;font-family:'Ubuntu Mono';-inkscape-font-specification:'Ubuntu Mono';letter-spacing:0.05291667px;word-spacing:0px;fill:#ffffff;fill-opacity:1;stroke:none;stroke-width:0.26458332"
           d="m 75.430272,62.345013 q 0.0751,-0.01834 0.14788,-0.05123 0.073,-0.03429 0.13918,-0.09228 l 0.0811,0.01095 -0.10363,0.767738 0.16362,0.02208 -0.0132,0.09789 -0.46567,-0.06286 0.0132,-0.09789 0.18739,0.02529 0.0819,-0.606918 q -0.0173,0.01191 -0.0417,0.02427 -0.0229,0.01115 -0.0513,0.02155 -0.0271,0.01059 -0.0567,0.0194 -0.0297,0.0088 -0.0574,0.01362 z" />
        <path
           id="path1010"
           style="font-style:normal;font-variant:normal;font-weight:normal;font-stretch:normal;font-size:1.41111112px;line-height:1.25;font-family:'Ubuntu Mono';-inkscape-font-specification:'Ubuntu Mono';letter-spacing:0.05291667px;word-spacing:0px;fill:#ffffff;fill-opacity:1;stroke:none;stroke-width:0.26458332"
           d="m 76.292692,63.080617 q 0.11021,0.01675 0.16282,-0.0195 0.0542,-0.03743 0.0655,-0.111373 0.007,-0.04743 -0.007,-0.08249 -0.0147,-0.03506 -0.0438,-0.05946 -0.0291,-0.02441 -0.0697,-0.03914 -0.0406,-0.01473 -0.0866,-0.02173 l -0.0293,-0.0045 0.0142,-0.09347 0.0405,0.0062 q 0.0307,0.0047 0.0636,0.004 0.0345,-0.0019 0.0634,-0.0132 0.0305,-0.0125 0.0514,-0.03786 0.021,-0.02536 0.0276,-0.0686 0.0108,-0.07115 -0.0294,-0.107232 -0.0386,-0.03727 -0.0972,-0.04617 -0.06,-0.0091 -0.1046,0.0027 -0.0444,0.01038 -0.0751,0.02427 l -0.0313,-0.09468 q 0.0325,-0.01647 0.0945,-0.02989 0.0636,-0.0146 0.13614,-0.0036 0.0684,0.01039 0.11464,0.03455 0.0463,0.02416 0.0723,0.05952 0.0274,0.03557 0.0364,0.07975 0.009,0.04279 0.002,0.09162 -0.0104,0.06836 -0.0539,0.110278 -0.0421,0.04213 -0.10171,0.05876 0.064,0.02971 0.10413,0.09433 0.0403,0.06323 0.0261,0.156696 -0.008,0.0558 -0.0354,0.101663 -0.0253,0.04468 -0.0697,0.07362 -0.043,0.02915 -0.10732,0.03935 -0.0629,0.01041 -0.14666,-0.0023 -0.0321,-0.0049 -0.0661,-0.01576 -0.0328,-0.0093 -0.0609,-0.0221 -0.0282,-0.01143 -0.0509,-0.02201 -0.021,-0.01176 -0.0302,-0.01743 l 0.0374,-0.09566 q 0.0206,0.01455 0.0671,0.03732 0.0465,0.02277 0.11765,0.03358 z" />
        <path
           id="path1012"
           style="font-style:normal;font-variant:normal;font-weight:normal;font-stretch:normal;font-size:1.41111112px;line-height:1.25;font-family:'Ubuntu Mono';-inkscape-font-specification:'Ubuntu Mono';letter-spacing:0.05291667px;word-spacing:0px;fill:#ffffff;fill-opacity:1;stroke:none;stroke-width:0.26458332"
           d="m 77.238162,62.859644 q -0.006,0.03618 -0.0329,0.05885 -0.0253,0.02291 -0.0601,0.01702 -0.0362,-0.0061 -0.054,-0.03632 -0.0178,-0.0302 -0.0117,-0.06638 0.006,-0.03618 0.0331,-0.06024 0.027,-0.02406 0.0632,-0.01794 0.0348,0.0059 0.0509,0.03724 0.0176,0.03159 0.0114,0.06777 z m -0.36712,-0.04635 q 0.0367,-0.217051 0.12998,-0.320062 0.0949,-0.104167 0.22986,-0.08134 0.13635,0.02306 0.19033,0.152406 0.0542,0.127954 0.0175,0.345005 -0.0367,0.217051 -0.13022,0.321453 -0.0933,0.103011 -0.22962,0.07995 -0.13496,-0.02282 -0.19057,-0.151014 -0.054,-0.129345 -0.0173,-0.346396 z m 0.4508,0.07624 q 0.012,-0.07096 0.0142,-0.134982 0.002,-0.06541 -0.009,-0.116015 -0.0115,-0.0506 -0.0388,-0.08384 -0.0273,-0.03324 -0.0746,-0.04124 -0.0473,-0.008 -0.084,0.01441 -0.0367,0.02242 -0.0642,0.06643 -0.0275,0.04401 -0.0466,0.106602 -0.0189,0.0612 -0.0309,0.132158 -0.012,0.07096 -0.0145,0.136373 -0.002,0.06402 0.009,0.114623 0.0115,0.0506 0.0388,0.08384 0.0273,0.03324 0.0746,0.04124 0.0473,0.008 0.084,-0.01441 0.0367,-0.02242 0.0642,-0.06643 0.0275,-0.04401 0.0464,-0.105211 0.0192,-0.06259 0.0312,-0.133549 z" />
        <path
           id="path1014"
           style="font-style:normal;font-variant:normal;font-weight:normal;font-stretch:normal;font-size:1.41111112px;line-height:1.25;font-family:'Ubuntu Mono';-inkscape-font-specification:'Ubuntu Mono';letter-spacing:0.05291667px;word-spacing:0px;fill:#ffffff;fill-opacity:1;stroke:none;stroke-width:0.26458332"
           d="m 81.468812,63.541871 q 0.0769,-0.0082 0.1534,-0.03104 0.0769,-0.02424 0.15025,-0.07287 l 0.0789,0.02168 -0.20519,0.747033 0.1592,0.04373 -0.0262,0.09525 -0.45312,-0.124457 0.0262,-0.09525 0.18234,0.05008 0.16221,-0.590551 q -0.0187,0.0095 -0.0446,0.01848 -0.0242,0.008 -0.0537,0.01451 -0.0282,0.0069 -0.0588,0.01165 -0.0306,0.0048 -0.0587,0.0058 z" />
        <path
           id="path1016"
           style="font-style:normal;font-variant:normal;font-weight:normal;font-stretch:normal;font-size:1.41111112px;line-height:1.25;font-family:'Ubuntu Mono';-inkscape-font-specification:'Ubuntu Mono';letter-spacing:0.05291667px;word-spacing:0px;fill:#ffffff;fill-opacity:1;stroke:none;stroke-width:0.26458332"
           d="m 82.048142,64.107737 q 0.0389,-0.04743 0.0988,-0.10635 0.0613,-0.05853 0.13316,-0.118338 0.0723,-0.06117 0.15021,-0.116287 0.0783,-0.05647 0.15358,-0.09766 l 0.10834,0.03172 -0.15584,0.532221 0.0989,0.02895 -0.027,0.09209 -0.0989,-0.02895 -0.0627,0.213972 -0.10834,-0.03172 0.0627,-0.213971 -0.37512,-0.109839 z m 0.49687,-0.305916 q -0.0481,0.02857 -0.0999,0.06486 -0.0504,0.03669 -0.10111,0.0792 -0.0503,0.04115 -0.0973,0.0862 -0.0457,0.04545 -0.0855,0.09112 l 0.26679,0.07812 z" />
        <path
           id="path1018"
           style="font-style:normal;font-variant:normal;font-weight:normal;font-stretch:normal;font-size:1.41111112px;line-height:1.25;font-family:'Ubuntu Mono';-inkscape-font-specification:'Ubuntu Mono';letter-spacing:0.05291667px;word-spacing:0px;fill:#ffffff;fill-opacity:1;stroke:none;stroke-width:0.26458332"
           d="m 83.191822,64.293415 q -0.0109,0.03503 -0.0404,0.05393 -0.0282,0.01931 -0.0619,0.0088 -0.035,-0.0109 -0.0486,-0.04321 -0.0136,-0.03231 -0.003,-0.06734 0.0109,-0.03503 0.0408,-0.05527 0.0299,-0.02024 0.065,-0.0093 0.0337,0.01048 0.0455,0.04372 0.0132,0.03365 0.002,0.06869 z m -0.35763,-0.09501 q 0.0654,-0.210195 0.1716,-0.299811 0.10798,-0.09054 0.23867,-0.04988 0.13205,0.04108 0.16825,0.176482 0.0366,0.134053 -0.0288,0.344248 -0.0654,0.210195 -0.17202,0.301159 -0.10621,0.08962 -0.23825,0.04853 -0.1307,-0.04066 -0.16867,-0.175135 -0.0362,-0.135401 0.0292,-0.345596 z m 0.43656,0.135824 q 0.0214,-0.06872 0.0322,-0.131866 0.0112,-0.0645 0.007,-0.116176 -0.005,-0.05168 -0.0272,-0.08827 -0.0226,-0.03659 -0.0684,-0.05084 -0.0458,-0.01425 -0.0852,0.0031 -0.0394,0.01731 -0.0725,0.05725 -0.0331,0.03994 -0.0605,0.09941 -0.0269,0.05812 -0.0483,0.126835 -0.0214,0.06872 -0.0326,0.133214 -0.0108,0.06315 -0.006,0.114829 0.005,0.05168 0.0272,0.08827 0.0226,0.03659 0.0684,0.05084 0.0458,0.01425 0.0852,-0.0031 0.0394,-0.01731 0.0725,-0.05725 0.0331,-0.03994 0.0601,-0.09806 0.0274,-0.05947 0.0488,-0.128183 z" />
        <path
           id="path1020"
           style="font-style:normal;font-variant:normal;font-weight:normal;font-stretch:normal;font-size:1.41111112px;line-height:1.25;font-family:'Ubuntu Mono';-inkscape-font-specification:'Ubuntu Mono';letter-spacing:0.05291667px;word-spacing:0px;fill:#ffffff;fill-opacity:1;stroke:none;stroke-width:0.26458332"
           d="m 87.293242,65.535659 q 0.0773,0.0022 0.15617,-0.01023 0.0795,-0.01373 0.15866,-0.05211 l 0.0753,0.03204 -0.30331,0.712854 0.15192,0.06464 -0.0387,0.09089 -0.43238,-0.183978 0.0387,-0.09089 0.17399,0.07403 0.23978,-0.563531 q -0.0198,0.0069 -0.0467,0.01235 -0.025,0.0047 -0.0552,0.0072 -0.0289,0.003 -0.0598,0.0037 -0.031,6.35e-4 -0.0589,-0.0021 z" />
        <path
           id="path1022"
           style="font-style:normal;font-variant:normal;font-weight:normal;font-stretch:normal;font-size:1.41111112px;line-height:1.25;font-family:'Ubuntu Mono';-inkscape-font-specification:'Ubuntu Mono';letter-spacing:0.05291667px;word-spacing:0px;fill:#ffffff;fill-opacity:1;stroke:none;stroke-width:0.26458332"
           d="m 88.080312,66.046116 q 0.16986,0.08338 0.21748,0.188013 0.0476,0.104631 -0.005,0.221932 -0.0235,0.05285 -0.0604,0.0905 -0.0369,0.03765 -0.0873,0.0538 -0.0492,0.01672 -0.11262,0.01008 -0.0622,-0.0061 -0.13695,-0.03937 -0.0309,-0.01378 -0.0596,-0.03272 -0.0279,-0.01707 -0.0521,-0.03558 -0.0242,-0.0185 -0.0419,-0.03413 -0.0172,-0.01692 -0.0239,-0.0261 l 0.0614,-0.08233 q 0.016,0.0195 0.0523,0.05262 0.0375,0.0337 0.10325,0.06298 0.0516,0.02297 0.0915,0.02687 0.04,0.0039 0.0692,-0.0062 0.0311,-0.01086 0.0516,-0.03263 0.0218,-0.02119 0.0344,-0.04955 0.0195,-0.04383 0.019,-0.08423 0.001,-0.04112 -0.0257,-0.08097 -0.0258,-0.03928 -0.085,-0.07959 -0.0574,-0.04102 -0.1541,-0.08409 0.033,-0.05327 0.0587,-0.100533 0.0275,-0.04798 0.0508,-0.09323 0.0251,-0.04597 0.0471,-0.0918 0.0232,-0.04526 0.0488,-0.09567 l 0.38413,0.171098 -0.0402,0.09023 -0.29132,-0.12976 q -0.009,0.01747 -0.0251,0.04597 -0.0139,0.02778 -0.0309,0.05886 -0.0169,0.03108 -0.0327,0.05958 -0.0158,0.0285 -0.0251,0.04597 z" />
        <path
           id="path1024"
           style="font-style:normal;font-variant:normal;font-weight:normal;font-stretch:normal;font-size:1.41111112px;line-height:1.25;font-family:'Ubuntu Mono';-inkscape-font-specification:'Ubuntu Mono';letter-spacing:0.05291667px;word-spacing:0px;fill:#ffffff;fill-opacity:1;stroke:none;stroke-width:0.26458332"
           d="m 88.900232,66.510987 q -0.0155,0.03326 -0.0473,0.04803 -0.0305,0.01537 -0.0625,4.76e-4 -0.0333,-0.01549 -0.0424,-0.04932 -0.009,-0.03384 0.006,-0.0671 0.0155,-0.03326 0.0479,-0.04931 0.0324,-0.01605 0.0656,-5.55e-4 0.032,0.01489 0.0393,0.04941 0.009,0.03512 -0.007,0.06838 z m -0.34171,-0.141991 q 0.0929,-0.19956 0.21016,-0.274166 0.11911,-0.07529 0.2432,-0.01751 0.12536,0.05837 0.14313,0.197399 0.0184,0.137746 -0.0746,0.337306 -0.0929,0.19956 -0.21076,0.275445 -0.11724,0.07461 -0.2426,0.01623 -0.12409,-0.05778 -0.14373,-0.19612 -0.0178,-0.139025 0.0752,-0.338584 z m 0.41447,0.192993 q 0.0304,-0.06524 0.0495,-0.12638 0.0197,-0.06242 0.0221,-0.114252 0.002,-0.05183 -0.0152,-0.09112 -0.0175,-0.03929 -0.061,-0.05954 -0.0435,-0.02025 -0.0848,-0.0084 -0.0413,0.01188 -0.0795,0.04704 -0.0382,0.03516 -0.0732,0.09043 -0.0345,0.05399 -0.0649,0.119232 -0.0304,0.06524 -0.0501,0.12766 -0.0191,0.06114 -0.0215,0.112972 -0.002,0.05183 0.0152,0.09112 0.0175,0.03928 0.061,0.05954 0.0435,0.02025 0.0848,0.0084 0.0413,-0.01188 0.0795,-0.04704 0.0382,-0.03515 0.0726,-0.08915 0.0351,-0.05527 0.0654,-0.120511 z" />
        <path
           id="path1026"
           style="font-style:normal;font-variant:normal;font-weight:normal;font-stretch:normal;font-size:1.41111112px;line-height:1.25;font-family:'Ubuntu Mono';-inkscape-font-specification:'Ubuntu Mono';letter-spacing:0.05291667px;word-spacing:0px;fill:#ffffff;fill-opacity:1;stroke:none;stroke-width:0.26458332"
           d="m 92.798752,68.289714 q 0.0763,0.01249 0.15614,0.01068 0.0806,-0.003 0.16418,-0.0305 l 0.0704,0.0418 -0.39563,0.666063 0.14195,0.08431 -0.0504,0.08493 -0.40401,-0.239971 0.0504,-0.08493 0.16257,0.09656 0.31275,-0.526542 q -0.0206,0.0042 -0.0479,0.006 -0.0254,0.0013 -0.0557,-2.37e-4 -0.029,-8.46e-4 -0.0598,-0.0043 -0.0307,-0.0035 -0.0581,-0.0099 z" />
        <path
           id="path1028"
           style="font-style:normal;font-variant:normal;font-weight:normal;font-stretch:normal;font-size:1.41111112px;line-height:1.25;font-family:'Ubuntu Mono';-inkscape-font-specification:'Ubuntu Mono';letter-spacing:0.05291667px;word-spacing:0px;fill:#ffffff;fill-opacity:1;stroke:none;stroke-width:0.26458332"
           d="m 93.254402,68.96124 q 0.0667,-0.108095 0.1466,-0.17319 0.0819,-0.06556 0.17074,-0.08867 0.0901,-0.02238 0.18666,-0.0043 0.0966,0.01812 0.19581,0.07766 l -0.0434,0.08926 q -0.0644,-0.03806 -0.1254,-0.05744 -0.059,-0.01984 -0.11766,-0.0162 -0.0579,0.0024 -0.11291,0.02984 -0.055,0.0274 -0.10944,0.08337 0.037,0.0046 0.0758,0.0169 0.04,0.01307 0.0785,0.03678 0.0624,0.03852 0.0938,0.0844 0.0326,0.04662 0.039,0.09535 0.007,0.04752 -0.007,0.09697 -0.0139,0.04944 -0.0413,0.09388 -0.0252,0.04084 -0.0651,0.07593 -0.0391,0.03389 -0.089,0.05288 -0.0491,0.01779 -0.10642,0.01395 -0.0566,-0.005 -0.11663,-0.04208 -0.1237,-0.0763 -0.13385,-0.196947 -0.0101,-0.120651 0.081,-0.268381 z m 0.28402,0.06906 q -0.0384,-0.0237 -0.0753,-0.0365 -0.0357,-0.01205 -0.077,-0.01764 -0.009,0.01127 -0.016,0.02328 -0.007,0.01081 -0.0148,0.02402 -0.0289,0.04684 -0.0488,0.09258 -0.018,0.04528 -0.0224,0.08734 -0.002,0.0416 0.0133,0.07785 0.0165,0.03505 0.0598,0.06172 0.036,0.02222 0.069,0.02262 0.0336,-7.94e-4 0.0633,-0.01399 0.0297,-0.01319 0.0527,-0.03711 0.025,-0.02438 0.0405,-0.0496 0.0452,-0.07326 0.0353,-0.132439 -0.009,-0.05843 -0.0796,-0.102138 z" />
        <path
           id="path1030"
           style="font-style:normal;font-variant:normal;font-weight:normal;font-stretch:normal;font-size:1.41111112px;line-height:1.25;font-family:'Ubuntu Mono';-inkscape-font-specification:'Ubuntu Mono';letter-spacing:0.05291667px;word-spacing:0px;fill:#ffffff;fill-opacity:1;stroke:none;stroke-width:0.26458332"
           d="m 94.261402,69.470361 q -0.0198,0.0309 -0.0532,0.04132 -0.0323,0.01117 -0.062,-0.0078 -0.0309,-0.01978 -0.0355,-0.05453 -0.005,-0.03475 0.0152,-0.06566 0.0198,-0.0309 0.054,-0.0425 0.0342,-0.0116 0.0651,0.0082 0.0297,0.01902 0.0323,0.0542 0.004,0.03594 -0.016,0.06684 z m -0.31977,-0.18621 q 0.11866,-0.185416 0.24479,-0.243753 0.12807,-0.05877 0.24336,0.01502 0.11648,0.07454 0.11558,0.214694 -1.4e-4,0.138964 -0.11879,0.32438 -0.11866,0.185415 -0.24555,0.244941 -0.12612,0.05834 -0.2426,-0.0162 -0.11529,-0.07378 -0.11634,-0.213506 7.9e-4,-0.140152 0.11955,-0.325568 z m 0.3851,0.246443 q 0.0388,-0.06062 0.0659,-0.118666 0.0279,-0.05924 0.0371,-0.110297 0.009,-0.05106 -0.003,-0.09233 -0.0121,-0.04127 -0.0525,-0.06713 -0.0404,-0.02586 -0.083,-0.01958 -0.0426,0.0063 -0.085,0.03604 -0.0425,0.02976 -0.0846,0.07987 -0.0414,0.04892 -0.0802,0.109539 -0.0388,0.06062 -0.0667,0.119854 -0.0271,0.05805 -0.0363,0.109109 -0.009,0.05106 0.003,0.09232 0.0121,0.04127 0.0525,0.06713 0.0404,0.02586 0.083,0.01958 0.0426,-0.0063 0.085,-0.03604 0.0425,-0.02976 0.0839,-0.07868 0.0421,-0.05011 0.0809,-0.110727 z" />
        <path
           id="path1032"
           style="font-style:normal;font-variant:normal;font-weight:normal;font-stretch:normal;font-size:1.41111112px;line-height:1.25;font-family:'Ubuntu Mono';-inkscape-font-specification:'Ubuntu Mono';letter-spacing:0.05291667px;word-spacing:0px;fill:#ffffff;fill-opacity:1;stroke:none;stroke-width:0.26458332"
           d="m 97.888862,71.750989 q 0.074,0.02249 0.15335,0.03128 0.0803,0.0077 0.16678,-0.0085 l 0.0642,0.05076 -0.48042,0.607748 0.12952,0.102384 -0.0613,0.07749 -0.36863,-0.291402 0.0613,-0.07749 0.14834,0.117261 0.37979,-0.480442 q -0.0209,0.0014 -0.0483,-3.7e-4 -0.0254,-0.0021 -0.0551,-0.0076 -0.0287,-0.0047 -0.0587,-0.01222 -0.03,-0.0075 -0.0563,-0.01752 z" />
        <path
           id="path1034"
           style="font-style:normal;font-variant:normal;font-weight:normal;font-stretch:normal;font-size:1.41111112px;line-height:1.25;font-family:'Ubuntu Mono';-inkscape-font-specification:'Ubuntu Mono';letter-spacing:0.05291667px;word-spacing:0px;fill:#ffffff;fill-opacity:1;stroke:none;stroke-width:0.26458332"
           d="m 98.140242,72.838076 q 0.0689,-0.07309 0.16131,-0.14152 0.0944,-0.06863 0.19219,-0.123557 0.0987,-0.05602 0.19318,-0.09357 0.0954,-0.03864 0.16917,-0.05306 l -0.3277,-0.267992 0.0643,-0.07865 0.42821,0.350176 -0.0616,0.07537 q -0.064,0.01143 -0.15498,0.04462 -0.0909,0.03318 -0.19199,0.08543 -0.0991,0.05205 -0.19924,0.123261 -0.0993,0.07012 -0.17997,0.155425 z" />
        <path
           id="path1036"
           style="font-style:normal;font-variant:normal;font-weight:normal;font-stretch:normal;font-size:1.41111112px;line-height:1.25;font-family:'Ubuntu Mono';-inkscape-font-specification:'Ubuntu Mono';letter-spacing:0.05291667px;word-spacing:0px;fill:#ffffff;fill-opacity:1;stroke:none;stroke-width:0.26458332"
           d="m 99.182162,73.114938 q -0.0237,0.02801 -0.0583,0.0339 -0.0335,0.0068 -0.0604,-0.01598 -0.028,-0.02369 -0.0279,-0.05874 7e-5,-0.03505 0.0238,-0.06306 0.0237,-0.02801 0.0592,-0.03498 0.0355,-0.007 0.0635,0.01673 0.0269,0.02278 0.0249,0.058 -0.001,0.03613 -0.0247,0.06414 z m -0.29231,-0.226905 q 0.14217,-0.168075 0.2749,-0.209202 0.13473,-0.04129 0.23924,0.0471 0.10559,0.08931 0.0861,0.228106 -0.0185,0.137722 -0.16069,0.305797 -0.14216,0.168075 -0.27581,0.210279 -0.13274,0.04113 -0.23833,-0.04818 -0.10451,-0.08839 -0.0871,-0.227028 0.0194,-0.1388 0.1616,-0.306875 z m 0.34908,0.295255 q 0.0465,-0.05495 0.081,-0.108898 0.0355,-0.05503 0.0514,-0.104418 0.0159,-0.04939 0.009,-0.0919 -0.007,-0.04251 -0.0432,-0.07349 -0.0366,-0.03098 -0.0796,-0.03039 -0.043,5.82e-4 -0.0891,0.02446 -0.0461,0.02387 -0.0945,0.06797 -0.0475,0.04302 -0.0939,0.09796 -0.0465,0.05495 -0.0819,0.109975 -0.0345,0.05395 -0.0504,0.103341 -0.0159,0.04939 -0.009,0.0919 0.007,0.04251 0.0432,0.07349 0.0366,0.03098 0.0796,0.03039 0.043,-5.82e-4 0.0891,-0.02446 0.0461,-0.02387 0.0935,-0.06689 0.0484,-0.04409 0.0949,-0.09904 z" />
        <path
           id="path1038"
           style="font-style:normal;font-variant:normal;font-weight:normal;font-stretch:normal;font-size:1.41111112px;line-height:1.25;font-family:'Ubuntu Mono';-inkscape-font-specification:'Ubuntu Mono';letter-spacing:0.05291667px;word-spacing:0px;fill:#ffffff;fill-opacity:1;stroke:none;stroke-width:0.26458332"
           d="m 102.47612,75.855031 q 0.0703,0.03206 0.14787,0.05126 0.0786,0.01822 0.16644,0.01364 l 0.0569,0.05879 -0.55648,0.538969 0.11486,0.118595 -0.071,0.06872 -0.32691,-0.337538 0.071,-0.06872 0.13154,0.135826 0.43992,-0.426071 q -0.0209,-0.0013 -0.0478,-0.0068 -0.0249,-0.0054 -0.0537,-0.01483 -0.0278,-0.0084 -0.0566,-0.01986 -0.0288,-0.01144 -0.0535,-0.02481 z" />
        <path
           id="path1040"
           style="font-style:normal;font-variant:normal;font-weight:normal;font-stretch:normal;font-size:1.41111112px;line-height:1.25;font-family:'Ubuntu Mono';-inkscape-font-specification:'Ubuntu Mono';letter-spacing:0.05291667px;word-spacing:0px;fill:#ffffff;fill-opacity:1;stroke:none;stroke-width:0.26458332"
           d="m 103.03116,77.113193 q -0.0803,0.07526 -0.17799,0.07008 -0.0967,-0.0041 -0.19415,-0.10815 -0.056,-0.05972 -0.0772,-0.113327 -0.0202,-0.05457 -0.0177,-0.101406 0.005,-0.04678 0.0258,-0.08602 0.0222,-0.03821 0.0521,-0.06619 0.0546,-0.05114 0.12477,-0.06083 0.0702,-0.0097 0.13454,0.0074 -0.0326,-0.133839 0.0694,-0.229356 0.035,-0.0328 0.0795,-0.04933 0.0445,-0.01652 0.0913,-0.014 0.0468,0.0025 0.0941,0.02403 0.0482,0.02253 0.0897,0.06681 0.0482,0.05149 0.0666,0.102 0.0193,0.05154 0.0158,0.09735 -0.002,0.04484 -0.0227,0.08312 -0.0192,0.03731 -0.047,0.06336 -0.0546,0.05114 -0.12078,0.06096 -0.0652,0.0089 -0.12264,-0.005 0.0489,0.153339 -0.0633,0.258504 z m -0.31299,-0.321667 q -0.0165,0.01544 -0.0292,0.03898 -0.0117,0.02258 -0.0137,0.05147 -0.002,0.02889 0.01,0.06222 0.0129,0.03237 0.0448,0.06635 0.0299,0.03192 0.0594,0.04686 0.0315,0.015 0.0594,0.01591 0.0299,9.78e-4 0.0552,-0.0092 0.0253,-0.01016 0.0438,-0.02753 0.0587,-0.05499 0.05,-0.126158 -0.008,-0.07213 -0.0606,-0.161707 -0.0613,-0.01996 -0.11645,-0.01078 -0.0552,0.0092 -0.10258,0.05357 z m 0.54255,-0.07519 q 0.0134,-0.01254 0.0241,-0.03416 0.0117,-0.02258 0.0126,-0.04851 0.003,-0.02586 -0.007,-0.05514 -0.009,-0.03024 -0.036,-0.05907 -0.028,-0.02986 -0.0566,-0.04177 -0.0276,-0.01088 -0.0546,-0.01076 -0.0259,-8.46e-4 -0.0492,0.0094 -0.0213,0.01029 -0.0378,0.02573 -0.0422,0.03956 -0.0513,0.104154 -0.007,0.06466 0.042,0.15012 0.0593,0.0179 0.11144,0.01161 0.0531,-0.0053 0.10251,-0.05157 z" />
        <path
           id="path1042"
           style="font-style:normal;font-variant:normal;font-weight:normal;font-stretch:normal;font-size:1.41111112px;line-height:1.25;font-family:'Ubuntu Mono';-inkscape-font-specification:'Ubuntu Mono';letter-spacing:0.05291667px;word-spacing:0px;fill:#ffffff;fill-opacity:1;stroke:none;stroke-width:0.26458332"
           d="m 103.57795,77.377818 q -0.0272,0.02464 -0.0622,0.02591 -0.0341,0.0023 -0.0578,-0.02382 -0.0246,-0.02718 -0.0199,-0.06192 0.005,-0.03473 0.0319,-0.05937 0.0272,-0.02464 0.0633,-0.02686 0.0361,-0.0022 0.0607,0.02496 0.0237,0.02614 0.017,0.06078 -0.006,0.03568 -0.0329,0.06032 z m -0.25978,-0.263515 q 0.16311,-0.147832 0.30011,-0.171071 0.139,-0.02314 0.23093,0.07828 0.0929,0.102465 0.0553,0.237482 -0.0366,0.134069 -0.19966,0.281901 -0.16311,0.147832 -0.30116,0.172019 -0.13701,0.02324 -0.22988,-0.07923 -0.0919,-0.10142 -0.0563,-0.236535 0.0376,-0.135017 0.20071,-0.282849 z m 0.30703,0.338764 q 0.0533,-0.04833 0.0947,-0.09725 0.0424,-0.04987 0.0647,-0.09672 0.0223,-0.04686 0.0214,-0.08986 -7.9e-4,-0.043 -0.0331,-0.07855 -0.0322,-0.03555 -0.0749,-0.04064 -0.0427,-0.0051 -0.0915,0.01249 -0.0488,0.01758 -0.1026,0.0549 -0.0527,0.03637 -0.10606,0.0847 -0.0533,0.04833 -0.0957,0.09819 -0.0414,0.04892 -0.0636,0.09577 -0.0223,0.04686 -0.0214,0.08986 8e-4,0.043 0.0331,0.07855 0.0322,0.03555 0.0749,0.04064 0.0427,0.0051 0.0915,-0.01249 0.0488,-0.01758 0.10155,-0.05395 0.0538,-0.03732 0.1071,-0.08565 z" />
        <path
           id="path1044"
           style="font-style:normal;font-variant:normal;font-weight:normal;font-stretch:normal;font-size:1.41111112px;line-height:1.25;font-family:'Ubuntu Mono';-inkscape-font-specification:'Ubuntu Mono';letter-spacing:0.05291667px;word-spacing:0px;fill:#ffffff;fill-opacity:1;stroke:none;stroke-width:0.26458332"
           d="m 106.48123,80.528962 q 0.0655,0.04107 0.1398,0.07035 0.0755,0.02844 0.16317,0.03551 l 0.0487,0.0658 -0.62283,0.460705 0.0982,0.132733 -0.0794,0.05874 -0.27944,-0.377779 0.0794,-0.05874 0.11245,0.152019 0.49236,-0.3642 q -0.0206,-0.0041 -0.0465,-0.01301 -0.0239,-0.0086 -0.0512,-0.02179 -0.0264,-0.01203 -0.0534,-0.02716 -0.027,-0.01514 -0.0497,-0.03166 z" />
        <path
           id="path1046"
           style="font-style:normal;font-variant:normal;font-weight:normal;font-stretch:normal;font-size:1.41111112px;line-height:1.25;font-family:'Ubuntu Mono';-inkscape-font-specification:'Ubuntu Mono';letter-spacing:0.05291667px;word-spacing:0px;fill:#ffffff;fill-opacity:1;stroke:none;stroke-width:0.26458332"
           d="m 107.10462,81.674929 q -0.21243,0.151742 -0.39418,0.125501 -0.18061,-0.02706 -0.33022,-0.234073 l 0.0779,-0.06086 q 0.0919,0.128604 0.19816,0.170594 0.10827,0.04232 0.25147,-0.02182 -0.0323,-0.01853 -0.0641,-0.04609 -0.0307,-0.02838 -0.0569,-0.06512 -0.0435,-0.06086 -0.0558,-0.114498 -0.0112,-0.05446 5.3e-4,-0.101047 0.013,-0.04741 0.0438,-0.08678 0.0308,-0.03937 0.0745,-0.07054 0.039,-0.02789 0.0882,-0.04397 0.0504,-0.0169 0.10253,-0.01427 0.0522,0.0026 0.1035,0.02838 0.0514,0.02575 0.0924,0.08317 0.0837,0.117121 0.0459,0.234245 -0.0377,0.117125 -0.17781,0.217192 z m -0.23245,-0.177319 q 0.0262,0.03674 0.0553,0.06283 0.0299,0.02723 0.0638,0.04806 0.0123,-0.0071 0.0226,-0.01444 0.0103,-0.0074 0.0218,-0.01558 0.0448,-0.03199 0.08,-0.06759 0.0361,-0.03445 0.0545,-0.07185 0.0192,-0.03625 0.0167,-0.07611 -5.3e-4,-0.03953 -0.03,-0.08087 -0.0246,-0.03445 -0.0559,-0.04675 -0.0302,-0.01312 -0.0627,-0.01246 -0.0313,-1.64e-4 -0.0627,0.01181 -0.0305,0.01312 -0.0546,0.03035 -0.0701,0.05003 -0.0846,0.107283 -0.0126,0.05758 0.0358,0.125324 z" />
        <path
           id="path1048"
           style="font-style:normal;font-variant:normal;font-weight:normal;font-stretch:normal;font-size:1.41111112px;line-height:1.25;font-family:'Ubuntu Mono';-inkscape-font-specification:'Ubuntu Mono';letter-spacing:0.05291667px;word-spacing:0px;fill:#ffffff;fill-opacity:1;stroke:none;stroke-width:0.26458332"
           d="m 107.37213,82.18409 q -0.0302,0.02083 -0.0651,0.01746 -0.0341,-0.0022 -0.0541,-0.03125 -0.0208,-0.0302 -0.0116,-0.06401 0.009,-0.03381 0.0395,-0.05464 0.0302,-0.02083 0.0662,-0.01826 0.0361,0.0026 0.0569,0.03277 0.02,0.02904 0.009,0.06249 -0.0104,0.03461 -0.0406,0.05543 z m -0.22265,-0.295556 q 0.18122,-0.124962 0.3201,-0.129878 0.14084,-0.0046 0.21854,0.108131 0.0785,0.113847 0.0234,0.242705 -0.054,0.128057 -0.23519,0.253019 -0.18123,0.124963 -0.32126,0.130679 -0.13888,0.0049 -0.21738,-0.108931 -0.0777,-0.112686 -0.0245,-0.241905 0.0551,-0.128858 0.23636,-0.25382 z m 0.25953,0.376394 q 0.0593,-0.04085 0.10672,-0.08387 0.0486,-0.04382 0.0769,-0.08732 0.0283,-0.0435 0.0331,-0.08624 0.005,-0.04274 -0.0224,-0.08224 -0.0272,-0.0395 -0.0689,-0.0502 -0.0417,-0.0107 -0.0924,2.65e-4 -0.0507,0.01097 -0.10896,0.04085 -0.0571,0.02908 -0.11633,0.06993 -0.0592,0.04085 -0.10788,0.08467 -0.0475,0.04302 -0.0757,0.08652 -0.0283,0.0435 -0.0331,0.08624 -0.005,0.04274 0.0224,0.08224 0.0272,0.0395 0.0689,0.0502 0.0417,0.0107 0.0924,-2.64e-4 0.0507,-0.01097 0.10779,-0.04005 0.0583,-0.02988 0.11749,-0.07073 z" />
        <path
           id="path1050"
           style="font-style:normal;font-variant:normal;font-weight:normal;font-stretch:normal;font-size:1.41111112px;line-height:1.25;font-family:'Ubuntu Mono';-inkscape-font-specification:'Ubuntu Mono';letter-spacing:0.05291667px;word-spacing:0px;fill:#ffffff;fill-opacity:1;stroke:none;stroke-width:0.26458332"
           d="m 110.03048,86.139033 q -0.0395,0.0218 -0.0855,0.02617 -0.0452,0.0056 -0.0954,-5.29e-4 -0.0495,-0.005 -0.10178,-0.01802 -0.0523,-0.01307 -0.10407,-0.02803 -0.0288,-0.0083 -0.0683,-0.01873 -0.0396,-0.0104 -0.079,-0.01767 -0.0394,-0.0073 -0.0736,-0.0078 -0.0341,-5.29e-4 -0.0527,0.0097 l 0.19413,0.352206 -0.0865,0.04768 -0.25545,-0.463428 q 0.005,-0.0046 0.0117,-0.008 0.007,-0.0041 0.0136,-0.0075 0.0519,-0.02861 0.10593,-0.03583 0.054,-0.0072 0.10856,-0.0019 0.0545,0.0054 0.10753,0.01968 0.0549,0.01484 0.10667,0.02982 0.0422,0.0122 0.0817,0.02262 0.0402,0.01164 0.0764,0.01587 0.0369,0.0055 0.0702,0.0016 0.0352,-0.0033 0.0649,-0.01966 0.0334,-0.01839 0.0507,-0.04246 0.018,-0.02283 0.0226,-0.04954 0.007,-0.02617 0.001,-0.05372 -0.006,-0.02757 -0.0205,-0.05476 -0.0177,-0.03213 -0.0413,-0.05455 -0.023,-0.02117 -0.0469,-0.03538 -0.0232,-0.01297 -0.0438,-0.02098 -0.0193,-0.0087 -0.0308,-0.01204 l 0.0437,-0.09018 q 0.0166,0.0038 0.0435,0.01466 0.027,0.01093 0.0555,0.03061 0.0305,0.02024 0.0595,0.0494 0.029,0.02915 0.0508,0.0687 0.0661,0.119875 0.0418,0.207375 -0.0224,0.08805 -0.12494,0.144592 z" />
        <path
           id="path1052"
           style="font-style:normal;font-variant:normal;font-weight:normal;font-stretch:normal;font-size:1.41111112px;line-height:1.25;font-family:'Ubuntu Mono';-inkscape-font-specification:'Ubuntu Mono';letter-spacing:0.05291667px;word-spacing:0px;fill:#ffffff;fill-opacity:1;stroke:none;stroke-width:0.26458332"
           d="m 110.14417,86.770585 q -0.0324,0.01717 -0.0667,0.0098 -0.0336,-0.0062 -0.0501,-0.03733 -0.0172,-0.03242 -0.004,-0.06492 0.0131,-0.0325 0.0456,-0.04967 0.0324,-0.01717 0.0679,-0.01042 0.0355,0.0067 0.0527,0.03916 0.0165,0.03118 10e-4,0.06309 -0.0144,0.03316 -0.0468,0.05033 z m -0.18675,-0.31945 q 0.19453,-0.103031 0.33303,-0.09176 0.14042,0.01185 0.20448,0.132821 0.0647,0.122206 -0.005,0.243774 -0.0685,0.120912 -0.26303,0.223943 -0.19453,0.103032 -0.33428,0.09242 -0.13851,-0.01127 -0.20323,-0.13348 -0.0641,-0.120959 0.004,-0.243115 0.0697,-0.12157 0.26428,-0.224602 z m 0.21399,0.40403 q 0.0636,-0.03368 0.11575,-0.07089 0.0534,-0.03786 0.0865,-0.07778 0.0332,-0.03991 0.0429,-0.0818 0.01,-0.04189 -0.0127,-0.08429 -0.0224,-0.0424 -0.0626,-0.05787 -0.0401,-0.01548 -0.0918,-0.01048 -0.0516,0.005 -0.11297,0.0279 -0.0601,0.02225 -0.12368,0.05592 -0.0636,0.03368 -0.11699,0.07155 -0.0522,0.0372 -0.0853,0.07712 -0.0331,0.03991 -0.0429,0.0818 -0.01,0.04189 0.0127,0.08429 0.0224,0.0424 0.0626,0.05787 0.0401,0.01548 0.0918,0.01048 0.0516,-0.005 0.11172,-0.02724 0.0613,-0.02291 0.12493,-0.05658 z" />
        <path
           id="path1054"
           style="font-style:normal;font-variant:normal;font-weight:normal;font-stretch:normal;font-size:1.41111112px;line-height:1.25;font-family:'Ubuntu Mono';-inkscape-font-specification:'Ubuntu Mono';letter-spacing:0.05291667px;word-spacing:0px;fill:#ffffff;fill-opacity:1;stroke:none;stroke-width:0.26458332"
           d="m 110.49581,87.451117 q -0.0327,0.01664 -0.0668,0.0087 -0.0335,-0.0067 -0.0495,-0.03816 -0.0166,-0.0327 -0.003,-0.06498 0.0137,-0.03228 0.0464,-0.04891 0.0327,-0.01664 0.0681,-0.0093 0.0354,0.0073 0.052,0.04004 0.016,0.03145 5.3e-4,0.06311 -0.0149,0.03292 -0.0476,0.04954 z m -0.18139,-0.322524 q 0.19623,-0.09977 0.33452,-0.08618 0.1402,0.01421 0.20224,0.136215 0.0627,0.12327 -0.009,0.243658 -0.0705,0.11975 -0.26673,0.219519 -0.19623,0.09977 -0.33578,0.08682 -0.1383,-0.01357 -0.20098,-0.136856 -0.062,-0.122012 0.008,-0.243017 0.0718,-0.120391 0.26799,-0.220157 z m 0.20721,0.407548 q 0.0642,-0.03262 0.11692,-0.06894 0.054,-0.03697 0.0878,-0.07632 0.0338,-0.03936 0.0443,-0.08108 0.0105,-0.04172 -0.0113,-0.08449 -0.0217,-0.04277 -0.0616,-0.05891 -0.0399,-0.01614 -0.0916,-0.01201 -0.0517,0.0041 -0.11342,0.02601 -0.0604,0.02122 -0.12459,0.05385 -0.0642,0.03262 -0.11818,0.06958 -0.0528,0.03633 -0.0866,0.07568 -0.0338,0.03936 -0.0443,0.08108 -0.0105,0.04172 0.0113,0.08449 0.0217,0.04277 0.0616,0.05891 0.0399,0.01614 0.0916,0.01201 0.0517,-0.0041 0.11216,-0.02537 0.0617,-0.02188 0.12585,-0.05449 z" />
        <path
           id="path1056"
           style="font-style:normal;font-variant:normal;font-weight:normal;font-stretch:normal;font-size:1.41111112px;line-height:1.25;font-family:'Ubuntu Mono';-inkscape-font-specification:'Ubuntu Mono';letter-spacing:0.05291667px;word-spacing:0px;fill:#ffffff;fill-opacity:1;stroke:none;stroke-width:0.26458332"
           d="m 112.60376,91.725178 q -0.0421,0.0163 -0.0882,0.0145 -0.0456,-5.3e-4 -0.0945,-0.0133 -0.0483,-0.0115 -0.0985,-0.0314 -0.0501,-0.0199 -0.0994,-0.0417 -0.0274,-0.0121 -0.0652,-0.0277 -0.0378,-0.0156 -0.076,-0.0281 -0.0381,-0.0125 -0.0719,-0.0175 -0.0337,-0.005 -0.0535,0.003 l 0.1454,0.37497 -0.0921,0.0357 -0.19131,-0.49338 q 0.006,-0.004 0.0127,-0.006 0.008,-0.003 0.0145,-0.006 0.0553,-0.0214 0.10976,-0.0214 0.0545,6e-5 0.10784,0.0127 0.0533,0.0126 0.10393,0.0339 0.0524,0.022 0.10174,0.0438 0.0402,0.0177 0.078,0.0333 0.0383,0.0169 0.0736,0.026 0.0358,0.0103 0.0693,0.0109 0.0354,0.001 0.0669,-0.0108 0.0355,-0.0138 0.0559,-0.0353 0.0209,-0.0202 0.0291,-0.0461 0.01,-0.0251 0.008,-0.0531 -0.002,-0.0281 -0.013,-0.057 -0.0133,-0.0342 -0.0337,-0.0596 -0.0199,-0.0241 -0.0417,-0.0413 -0.0213,-0.016 -0.0406,-0.0266 -0.018,-0.0112 -0.0289,-0.016 l 0.0554,-0.0835 q 0.0159,0.006 0.0412,0.0204 0.0253,0.0144 0.051,0.0378 0.0275,0.0241 0.0523,0.0569 0.0248,0.0328 0.0411,0.0749 0.0495,0.12762 0.0137,0.2111 -0.0339,0.0843 -0.14311,0.12663 z" />
        <path
           id="path1058"
           style="font-style:normal;font-variant:normal;font-weight:normal;font-stretch:normal;font-size:1.41111112px;line-height:1.25;font-family:'Ubuntu Mono';-inkscape-font-specification:'Ubuntu Mono';letter-spacing:0.05291667px;word-spacing:0px;fill:#ffffff;fill-opacity:1;stroke:none;stroke-width:0.26458332"
           d="m 112.74349,91.974848 q 0.0514,0.0578 0.11452,0.10668 0.0645,0.0484 0.14671,0.0798 l 0.0283,0.0768 -0.7269,0.26792 0.0571,0.15491 -0.0927,0.0342 -0.16251,-0.4409 0.0927,-0.0342 0.0654,0.17742 0.57463,-0.21179 q -0.0186,-0.01 -0.041,-0.0255 -0.0206,-0.015 -0.0431,-0.0353 -0.022,-0.0189 -0.0437,-0.041 -0.0217,-0.0221 -0.0389,-0.0443 z" />
        <path
           id="path1060"
           style="font-style:normal;font-variant:normal;font-weight:normal;font-stretch:normal;font-size:1.41111112px;line-height:1.25;font-family:'Ubuntu Mono';-inkscape-font-specification:'Ubuntu Mono';letter-spacing:0.05291667px;word-spacing:0px;fill:#ffffff;fill-opacity:1;stroke:none;stroke-width:0.26458332"
           d="m 112.88971,93.087768 q -0.0346,0.0121 -0.0674,-2.6e-4 -0.0323,-0.0111 -0.0439,-0.0444 -0.0121,-0.0346 0.006,-0.0648 0.0179,-0.0302 0.0525,-0.0423 0.0346,-0.0121 0.0687,-1.1e-4 0.0341,0.012 0.0462,0.0466 0.0116,0.0333 -0.008,0.0626 -0.0192,0.0306 -0.0538,0.0427 z m -0.13668,-0.34387 q 0.2078,-0.0727 0.34304,-0.0407 0.13704,0.0328 0.18222,0.16202 0.0456,0.13054 -0.0416,0.24026 -0.0859,0.10925 -0.29367,0.18191 -0.2078,0.0726 -0.34437,0.0412 -0.13525,-0.0319 -0.18089,-0.16249 -0.0452,-0.1292 0.0402,-0.23979 0.0872,-0.10972 0.295,-0.18237 z m 0.1509,0.43158 q 0.0679,-0.0238 0.12508,-0.0527 0.0585,-0.0294 0.0973,-0.0639 0.0388,-0.0345 0.0547,-0.0744 0.0159,-0.04 9e-5,-0.0852 -0.0158,-0.0453 -0.0532,-0.0666 -0.0374,-0.0213 -0.0892,-0.0241 -0.0518,-0.003 -0.11588,0.0106 -0.0627,0.013 -0.13067,0.0367 -0.0679,0.0238 -0.12641,0.0532 -0.0572,0.0289 -0.0959,0.0634 -0.0388,0.0345 -0.0547,0.0744 -0.0159,0.0399 -9e-5,0.0852 0.0158,0.0453 0.0532,0.0666 0.0374,0.0213 0.0892,0.0241 0.0518,0.003 0.11455,-0.0102 0.0641,-0.0134 0.132,-0.0372 z" />
        <path
           id="path1062"
           style="font-style:normal;font-variant:normal;font-weight:normal;font-stretch:normal;font-size:1.41111112px;line-height:1.25;font-family:'Ubuntu Mono';-inkscape-font-specification:'Ubuntu Mono';letter-spacing:0.05291667px;word-spacing:0px;fill:#ffffff;fill-opacity:1;stroke:none;stroke-width:0.26458332"
           d="m 114.40695,97.605518 q -0.0439,0.0105 -0.0894,0.003 -0.0451,-0.007 -0.0918,-0.0259 -0.0464,-0.0179 -0.0934,-0.0443 -0.047,-0.0265 -0.0929,-0.0546 -0.0255,-0.0156 -0.0609,-0.0362 -0.0354,-0.0205 -0.0715,-0.038 -0.0361,-0.0175 -0.0689,-0.027 -0.0328,-0.01 -0.0533,-0.005 l 0.0939,0.39105 -0.096,0.0231 -0.12355,-0.51454 q 0.007,-0.003 0.0134,-0.005 0.008,-0.002 0.0151,-0.004 0.0576,-0.0138 0.11163,-0.007 0.054,0.007 0.10517,0.027 0.0512,0.0196 0.0985,0.0475 0.049,0.0289 0.095,0.057 0.0374,0.0229 0.0728,0.0435 0.0357,0.0219 0.0695,0.0356 0.0341,0.015 0.0672,0.0201 0.0349,0.006 0.0678,-0.002 0.0371,-0.009 0.0602,-0.0275 0.0234,-0.0173 0.0349,-0.0418 0.0132,-0.0235 0.0152,-0.0515 0.002,-0.028 -0.005,-0.0582 -0.009,-0.0357 -0.0254,-0.0636 -0.0165,-0.0265 -0.0358,-0.0465 -0.019,-0.0186 -0.0367,-0.0318 -0.0163,-0.0135 -0.0265,-0.0198 l 0.0661,-0.0754 q 0.015,0.008 0.0381,0.0257 0.0231,0.0177 0.0454,0.0442 0.024,0.0276 0.0443,0.0634 0.0202,0.0358 0.0307,0.0797 0.032,0.1331 -0.0146,0.21104 -0.0449,0.079 -0.15877,0.10633 z" />
        <path
           id="path1064"
           style="font-style:normal;font-variant:normal;font-weight:normal;font-stretch:normal;font-size:1.41111112px;line-height:1.25;font-family:'Ubuntu Mono';-inkscape-font-specification:'Ubuntu Mono';letter-spacing:0.05291667px;word-spacing:0px;fill:#ffffff;fill-opacity:1;stroke:none;stroke-width:0.26458332"
           d="m 114.57637,98.355988 q -0.0441,0.01 -0.0894,0.001 -0.045,-0.007 -0.0914,-0.0274 -0.0461,-0.0186 -0.0926,-0.0459 -0.0465,-0.0272 -0.092,-0.0561 -0.0253,-0.0161 -0.0603,-0.0372 -0.0351,-0.0211 -0.0709,-0.0392 -0.0358,-0.0181 -0.0684,-0.0281 -0.0326,-0.0101 -0.0533,-0.006 l 0.0873,0.39257 -0.0964,0.0215 -0.1149,-0.51654 q 0.007,-0.003 0.0135,-0.004 0.008,-0.002 0.0152,-0.003 0.0579,-0.0129 0.11173,-0.005 0.0539,0.008 0.1047,0.0288 0.0508,0.0205 0.0977,0.0491 0.0485,0.0297 0.094,0.0586 0.037,0.0236 0.0721,0.0447 0.0354,0.0225 0.0689,0.0367 0.0338,0.0156 0.0669,0.0213 0.0347,0.007 0.0678,-5.3e-4 0.0372,-0.008 0.0606,-0.0265 0.0237,-0.0168 0.0357,-0.0412 0.0136,-0.0233 0.0161,-0.0513 0.002,-0.028 -0.004,-0.0583 -0.008,-0.0358 -0.0243,-0.064 -0.0161,-0.0268 -0.0351,-0.0471 -0.0187,-0.019 -0.0361,-0.0324 -0.0161,-0.0138 -0.0262,-0.0202 l 0.0673,-0.0742 q 0.0148,0.008 0.0376,0.0263 0.0228,0.0181 0.0447,0.045 0.0236,0.028 0.0432,0.0641 0.0196,0.0361 0.0294,0.0802 0.0297,0.13361 -0.0182,0.21076 -0.0462,0.0782 -0.16054,0.10366 z" />
        <path
           id="path1066"
           style="font-style:normal;font-variant:normal;font-weight:normal;font-stretch:normal;font-size:1.41111112px;line-height:1.25;font-family:'Ubuntu Mono';-inkscape-font-specification:'Ubuntu Mono';letter-spacing:0.05291667px;word-spacing:0px;fill:#ffffff;fill-opacity:1;stroke:none;stroke-width:0.26458332"
           d="m 114.50797,98.994168 q -0.0359,0.007 -0.0667,-0.009 -0.0305,-0.0153 -0.0376,-0.0499 -0.007,-0.0359 0.0144,-0.0634 0.0217,-0.0275 0.0577,-0.0349 0.0359,-0.007 0.0681,0.009 0.0322,0.0165 0.0395,0.0524 0.007,0.0346 -0.0163,0.061 -0.0231,0.0278 -0.0591,0.0352 z m -0.0894,-0.35907 q 0.21565,-0.0442 0.3454,0.006 0.13142,0.0508 0.1589,0.18494 0.0278,0.13547 -0.0733,0.23254 -0.0997,0.0968 -0.31537,0.14097 -0.21566,0.0442 -0.34679,-0.005 -0.12975,-0.0498 -0.15752,-0.18522 -0.0275,-0.13409 0.072,-0.23226 0.10111,-0.0971 0.31676,-0.14125 z m 0.0918,0.44789 q 0.0705,-0.0144 0.13101,-0.0355 0.0619,-0.0213 0.10492,-0.0503 0.043,-0.029 0.0642,-0.0664 0.0211,-0.0375 0.0115,-0.0845 -0.01,-0.047 -0.0438,-0.0731 -0.0342,-0.0261 -0.0851,-0.0358 -0.051,-0.01 -0.11625,-0.005 -0.0639,0.004 -0.13441,0.0189 -0.0705,0.0144 -0.13239,0.0358 -0.0605,0.021 -0.10355,0.05 -0.043,0.029 -0.0642,0.0664 -0.0211,0.0375 -0.0115,0.0845 0.01,0.047 0.0438,0.0731 0.0342,0.0261 0.0851,0.0359 0.051,0.01 0.11488,0.005 0.0653,-0.005 0.13579,-0.0192 z" />
        <path
           id="path1068"
           style="font-style:normal;font-variant:normal;font-weight:normal;font-stretch:normal;font-size:1.41111112px;line-height:1.25;font-family:'Ubuntu Mono';-inkscape-font-specification:'Ubuntu Mono';letter-spacing:0.05291667px;word-spacing:0px;fill:#ffffff;fill-opacity:1;stroke:none;stroke-width:0.26458332"
           d="m 115.40823,103.67376 q -0.0449,0.005 -0.0889,-0.009 -0.0438,-0.0125 -0.0876,-0.0378 -0.0436,-0.0239 -0.0866,-0.0564 -0.043,-0.0325 -0.0848,-0.0665 -0.0232,-0.0189 -0.0556,-0.044 -0.0324,-0.0251 -0.0658,-0.0472 -0.0335,-0.0221 -0.0647,-0.0359 -0.0312,-0.0138 -0.0523,-0.0117 l 0.041,0.40007 -0.0983,0.0101 -0.0539,-0.52641 q 0.007,-0.002 0.0139,-0.003 0.008,-7.9e-4 0.0154,-0.002 0.059,-0.006 0.11151,0.008 0.0525,0.0145 0.10063,0.0408 0.0481,0.0263 0.0913,0.0602 0.0447,0.0351 0.0865,0.0692 0.034,0.0277 0.0664,0.0528 0.0325,0.0265 0.0641,0.0445 0.0318,0.0194 0.064,0.0289 0.0337,0.0107 0.0674,0.007 0.0379,-0.004 0.0633,-0.0193 0.0255,-0.014 0.0402,-0.0367 0.0162,-0.0215 0.0219,-0.0491 0.006,-0.0275 0.003,-0.0584 -0.004,-0.0365 -0.0167,-0.0664 -0.0129,-0.0285 -0.0293,-0.0509 -0.0163,-0.021 -0.0321,-0.0364 -0.0144,-0.0156 -0.0236,-0.0231 l 0.0755,-0.0659 q 0.0138,0.01 0.0343,0.0305 0.0206,0.0206 0.0392,0.0499 0.0202,0.0306 0.0354,0.0687 0.0153,0.0382 0.0199,0.0831 0.0139,0.13616 -0.0426,0.20721 -0.055,0.0723 -0.17152,0.0842 z" />
        <path
           id="path1070"
           style="font-style:normal;font-variant:normal;font-weight:normal;font-stretch:normal;font-size:1.41111112px;line-height:1.25;font-family:'Ubuntu Mono';-inkscape-font-specification:'Ubuntu Mono';letter-spacing:0.05291667px;word-spacing:0px;fill:#ffffff;fill-opacity:1;stroke:none;stroke-width:0.26458332"
           d="m 114.88744,104.19578 q 0.01,0.11107 0.0571,0.15373 0.0491,0.0439 0.12361,0.0376 0.0478,-0.004 0.0785,-0.0266 0.0307,-0.0225 0.0476,-0.0565 0.0169,-0.034 0.0217,-0.0769 0.005,-0.0429 7.9e-4,-0.0893 l -0.003,-0.0295 0.0942,-0.008 0.004,0.0408 q 0.003,0.0309 0.011,0.0628 0.01,0.0331 0.0277,0.0585 0.0193,0.0267 0.0488,0.0411 0.0296,0.0145 0.0731,0.0107 0.0717,-0.006 0.0974,-0.0537 0.0272,-0.0462 0.0221,-0.10528 -0.005,-0.0605 -0.0271,-0.10107 -0.0205,-0.0407 -0.0412,-0.0673 l 0.0847,-0.0526 q 0.0236,0.0277 0.0512,0.0848 0.0291,0.0584 0.0353,0.13152 0.006,0.0689 -0.007,0.11954 -0.0127,0.0506 -0.0409,0.0842 -0.0282,0.035 -0.069,0.0541 -0.0394,0.019 -0.0887,0.0232 -0.0689,0.006 -0.11982,-0.0266 -0.0508,-0.0311 -0.081,-0.0851 -0.0139,0.0692 -0.0673,0.12332 -0.052,0.054 -0.14622,0.0621 -0.0562,0.005 -0.10714,-0.0107 -0.0494,-0.0142 -0.0879,-0.0505 -0.0384,-0.035 -0.0634,-0.0951 -0.0249,-0.0588 -0.0321,-0.14312 -0.003,-0.0323 -1.6e-4,-0.068 0.001,-0.0341 0.007,-0.0643 0.005,-0.0301 0.009,-0.0546 0.007,-0.0232 0.01,-0.0334 l 0.10175,0.0139 q -0.009,0.0235 -0.0206,0.074 -0.0112,0.0505 -0.005,0.12223 z" />
        <path
           id="path1072"
           style="font-style:normal;font-variant:normal;font-weight:normal;font-stretch:normal;font-size:1.41111112px;line-height:1.25;font-family:'Ubuntu Mono';-inkscape-font-specification:'Ubuntu Mono';letter-spacing:0.05291667px;word-spacing:0px;fill:#ffffff;fill-opacity:1;stroke:none;stroke-width:0.26458332"
           d="m 115.32369,105.06304 q -0.0366,0.002 -0.0649,-0.0181 -0.0282,-0.0193 -0.0306,-0.0545 -0.003,-0.0366 0.0227,-0.061 0.0252,-0.0244 0.0618,-0.0269 0.0366,-0.002 0.0663,0.0181 0.0297,0.0206 0.0322,0.0572 0.002,0.0352 -0.0243,0.0583 -0.0266,0.0245 -0.0632,0.027 z m -0.041,-0.36777 q 0.21961,-0.0152 0.34161,0.0514 0.1235,0.0679 0.13293,0.20441 0.01,0.13796 -0.10358,0.22074 -0.11169,0.0827 -0.3313,0.0978 -0.21961,0.0152 -0.34301,-0.0513 -0.122,-0.0665 -0.13152,-0.20451 -0.009,-0.13655 0.10216,-0.22064 0.1131,-0.0828 0.33271,-0.0979 z m 0.0315,0.45612 q 0.0718,-0.005 0.13456,-0.0178 0.0642,-0.0129 0.11067,-0.0359 0.0465,-0.023 0.0724,-0.0573 0.0259,-0.0343 0.0226,-0.0822 -0.003,-0.0479 -0.0337,-0.0783 -0.0304,-0.0304 -0.0796,-0.0468 -0.0492,-0.0164 -0.11457,-0.0204 -0.0639,-0.004 -0.13572,7.9e-4 -0.0718,0.005 -0.13597,0.0179 -0.0628,0.0128 -0.10927,0.0358 -0.0465,0.023 -0.0724,0.0573 -0.0259,0.0343 -0.0226,0.0822 0.003,0.0479 0.0337,0.0783 0.0304,0.0304 0.0796,0.0468 0.0492,0.0164 0.11316,0.0205 0.0653,0.004 0.13714,-0.001 z" />
      </g>
    </g>
  </g>
</svg>
